<?xml version="1.0" encoding="UTF-8" standalone="no"?><!DOCTYPE svg PUBLIC "-//W3C//DTD SVG 1.1//EN" "http://www.w3.org/Graphics/SVG/1.1/DTD/svg11.dtd"><svg width="100%" height="100%" viewBox="0 0 2138 2134" version="1.1" xmlns="http://www.w3.org/2000/svg" xmlns:xlink="http://www.w3.org/1999/xlink" xml:space="preserve" xmlns:serif="http://www.serif.com/" style="fill-rule:evenodd;clip-rule:evenodd;stroke-linejoin:round;stroke-miterlimit:2;"><rect id="Icon-Cockpit-Inverse" serif:id="Icon Cockpit Inverse" x="2.191" y="0" width="2133.33" height="2133.33" style="fill:none;"/><g id="Icon-Cockpit" serif:id="Icon Cockpit"><g id="Polygon"><path id="Polygon1" serif:id="Polygon" d="M985.524,73.113c51.567,-29.773 115.1,-29.773 166.667,-0c171.804,99.191 563.639,325.417 735.443,424.608c51.567,29.772 83.334,84.793 83.334,144.337c-0,198.382 -0,650.835 -0,849.217c-0,59.544 -31.767,114.565 -83.334,144.338c-171.804,99.191 -563.639,325.417 -735.443,424.608c-51.567,29.772 -115.1,29.772 -166.667,-0c-171.803,-99.191 -563.639,-325.417 -735.443,-424.608c-51.567,-29.773 -83.333,-84.794 -83.333,-144.338l-0,-849.217c-0,-59.544 31.766,-114.565 83.333,-144.337c171.804,-99.191 563.64,-325.417 735.443,-424.608Z" style="fill:none;"/><clipPath id="_clip1"><path id="Polygon2" serif:id="Polygon" d="M985.524,73.113c51.567,-29.773 115.1,-29.773 166.667,-0c171.804,99.191 563.639,325.417 735.443,424.608c51.567,29.772 83.334,84.793 83.334,144.337c-0,198.382 -0,650.835 -0,849.217c-0,59.544 -31.767,114.565 -83.334,144.338c-171.804,99.191 -563.639,325.417 -735.443,424.608c-51.567,29.772 -115.1,29.772 -166.667,-0c-171.803,-99.191 -563.639,-325.417 -735.443,-424.608c-51.567,-29.773 -83.333,-84.794 -83.333,-144.338l-0,-849.217c-0,-59.544 31.766,-114.565 83.333,-144.337c171.804,-99.191 563.64,-325.417 735.443,-424.608Z"/></clipPath><g clip-path="url(#_clip1)"><path id="HG" d="M985.524,73.113c51.567,-29.773 115.1,-29.773 166.667,-0c171.804,99.191 563.639,325.417 735.443,424.608c51.567,29.772 83.334,84.793 83.334,144.337c-0,198.382 -0,650.835 -0,849.217c-0,59.544 -31.767,114.565 -83.334,144.338c-171.804,99.191 -563.639,325.417 -735.443,424.608c-51.567,29.772 -115.1,29.772 -166.667,-0c-171.803,-99.191 -563.639,-325.417 -735.443,-424.608c-51.567,-29.773 -83.333,-84.794 -83.333,-144.338l-0,-849.217c-0,-59.544 31.766,-114.565 83.333,-144.337c171.804,-99.191 563.64,-325.417 735.443,-424.608Z" style="fill:#38bdf8;"/><path id="seite-rechts" serif:id="seite rechts" d="M1068.86,2108.33l902.083,-520.833l0,-1041.67l-902.083,520.834l-0,1041.67Z" style="fill:#0ea5e9;"/><path id="seite-hinten" serif:id="seite hinten" d="M1068.86,25l902.083,520.833l0,1041.67l-902.083,-520.833l-0,-1041.67Z" style="fill:#38abee;"/><path id="seite-links" serif:id="seite links" d="M1068.86,25l-902.084,520.833l0,1041.67l902.084,-520.833l-0,-1041.67Z" style="fill:#38aaf1;"/><path id="seite-vorne" serif:id="seite vorne" d="M166.774,545.833l0,1041.67l902.084,520.833l-0,-1041.67l-902.084,-520.834Z" style="fill:#0ea5f2;"/></g></g><g id="Management"><path id="Management1" serif:id="Management" d="M1224.71,1410.67l-0,30.561c-0,53.836 -43.771,97.606 -97.607,97.606l-585.638,0c-53.836,0 -97.606,-43.77 -97.606,-97.606l-0,-195.213l292.819,0l-0,48.803c-0,26.995 21.809,48.804 48.803,48.804l97.606,-0c26.571,-0 48.117,-21.13 48.74,-47.538c77.949,63.246 179.877,105.118 292.883,114.583Zm468.303,-180.91c2.023,5.499 0.316,11.63 -4.045,15.549l-27.369,24.903c0.696,5.246 1.075,10.619 1.075,16.054c0,5.436 -0.379,10.809 -1.075,16.055l27.369,24.903c4.361,3.919 6.068,10.05 4.045,15.549c-2.781,7.522 -6.131,14.727 -9.986,21.68l-2.971,5.12c-4.172,6.953 -8.849,13.526 -13.969,19.72c-3.729,4.551 -9.923,6.068 -15.485,4.298l-35.207,-11.187c-8.469,6.51 -17.824,11.946 -27.811,16.054l-7.9,36.091c-1.264,5.752 -5.689,10.303 -11.504,11.251c-8.722,1.454 -17.698,2.212 -26.863,2.212c-9.165,0 -18.14,-0.758 -26.863,-2.212c-5.815,-0.948 -10.239,-5.499 -11.503,-11.251l-7.901,-36.091c-9.987,-4.108 -19.341,-9.544 -27.811,-16.054l-35.143,11.251c-5.562,1.769 -11.756,0.189 -15.486,-4.298c-5.119,-6.195 -9.797,-12.768 -13.968,-19.721l-2.971,-5.12c-3.855,-6.952 -7.205,-14.158 -9.987,-21.68c-2.022,-5.499 -0.316,-11.63 4.046,-15.548l27.368,-24.904c-0.695,-5.309 -1.074,-10.682 -1.074,-16.118c-0,-5.435 0.379,-10.808 1.074,-16.054l-27.368,-24.903c-4.362,-3.919 -6.068,-10.05 -4.046,-15.549c2.782,-7.522 6.132,-14.727 9.987,-21.68l2.971,-5.12c4.171,-6.953 8.849,-13.526 13.968,-19.72c3.73,-4.551 9.924,-6.068 15.486,-4.298l35.206,11.187c8.47,-6.51 17.825,-11.946 27.811,-16.054l7.901,-36.091c1.264,-5.752 5.689,-10.303 11.504,-11.251c8.722,-1.517 17.697,-2.276 26.862,-2.276c9.165,0 18.141,0.759 26.863,2.213c5.815,0.948 10.24,5.499 11.504,11.25l7.901,36.091c9.986,4.109 19.341,9.545 27.811,16.055l35.206,-11.188c5.562,-1.769 11.756,-0.189 15.485,4.298c5.12,6.195 9.797,12.768 13.969,19.721l2.971,5.12c3.855,6.952 7.205,14.158 9.986,21.68l-0.063,0.063Zm-323.024,109.063l-77.715,-0.071c-12.658,21.809 -36.297,36.603 -63.444,36.603l-48.803,-0c-40.415,-0 -73.205,-32.79 -73.205,-73.205c0,-40.415 32.79,-73.205 73.205,-73.205l48.803,0c27.147,0 50.786,14.794 63.444,36.603l77.317,0.07c-1.979,11.494 -2.981,23.338 -2.981,35.427c0,12.908 1.143,25.536 3.379,37.778Zm171.391,-1.991c27.74,-0 50.566,-22.826 50.566,-50.566c-0,-27.739 -22.826,-50.565 -50.566,-50.565c-27.739,0 -50.565,22.826 -50.565,50.565c0,27.74 22.826,50.566 50.565,50.566Zm-716.05,-530.042c-13.03,23.307 -23.635,47.785 -31.513,73.204l-69.34,0c-6.71,0 -12.201,5.491 -12.201,12.201l0,61.004l66.719,0c-1.184,11.774 -1.769,23.66 -1.769,35.661c-0,75.727 23.313,146.842 64.147,208.355l-397.514,0l-0,-146.409c-0,-53.836 43.77,-97.607 97.606,-97.607l97.606,0l0,-61.004c0,-47.125 38.28,-85.405 85.406,-85.405l100.853,-0Zm208.288,104.935l24.401,-0c26.994,-0 48.803,21.809 48.803,48.803l0,170.811c0,26.994 -21.809,48.803 -48.803,48.803l-24.401,0c-53.836,0 -97.607,-43.77 -97.607,-97.606l0,-73.205c0,-53.836 43.771,-97.606 97.607,-97.606Zm375.194,262.471c-10.475,3.847 -21.782,5.946 -33.572,5.946l-24.402,0c-26.994,0 -48.803,-21.809 -48.803,-48.803l0,-170.811c0,-26.994 21.809,-48.803 48.803,-48.803l24.402,-0c53.836,-0 97.606,43.77 97.606,97.606l0,73.205c0,15.192 -3.486,29.583 -9.701,42.41c-20.913,12.71 -39.349,29.455 -54.333,49.25Zm112.837,-72.469l0,-116.798c0,-175.234 -141.986,-317.22 -317.22,-317.22c-175.234,-0 -317.221,141.986 -317.221,317.22l0,61.004c0,20.284 -16.319,36.603 -36.602,36.603c-20.284,-0 -36.603,-16.319 -36.603,-36.603l0,-61.004c0,-215.649 174.777,-390.425 390.426,-390.425c215.649,0 390.425,174.776 390.425,390.425l0,116.503c-11.595,-2.366 -23.574,-3.576 -35.819,-3.576c-12.797,-0 -25.305,1.322 -37.386,3.871Z" style="fill:#fff;"/></g></g></svg>