<?xml version="1.0" encoding="UTF-8" standalone="no"?>
<!DOCTYPE svg PUBLIC "-//W3C//DTD SVG 1.1//EN" "http://www.w3.org/Graphics/SVG/1.1/DTD/svg11.dtd">
<svg width="100%" height="100%" viewBox="0 0 2501 501" version="1.1" xmlns="http://www.w3.org/2000/svg" xmlns:xlink="http://www.w3.org/1999/xlink" xml:space="preserve" xmlns:serif="http://www.serif.com/" style="fill-rule:evenodd;clip-rule:evenodd;stroke-linejoin:round;stroke-miterlimit:2;">
    <g transform="matrix(1,0,0,1,-1739,-4330)">
        <g id="Logo-Cockpit-Dark" serif:id="Logo Cockpit Dark" transform="matrix(4.06203,0,0,1.74087,1443.42,1599.28)">
            <rect x="72.992" y="1568.76" width="615.456" height="287.213" style="fill:none;"/>
            <g transform="matrix(5.09268,0,0,11.8829,-3310.6,-20304.9)">
                <g transform="matrix(11.6017,0,0,11.6017,688.448,1855.97)">
                    <path d="M0.077,-0L0.077,-0.652L0.231,-0.652L0.398,-0.331C0.41,-0.309 0.421,-0.285 0.432,-0.261C0.442,-0.235 0.452,-0.21 0.462,-0.184L0.466,-0.184C0.463,-0.219 0.459,-0.258 0.454,-0.3C0.449,-0.342 0.447,-0.382 0.447,-0.421L0.447,-0.652L0.588,-0.652L0.588,-0L0.434,-0L0.267,-0.321C0.256,-0.343 0.245,-0.367 0.234,-0.392C0.223,-0.417 0.212,-0.443 0.202,-0.468L0.198,-0.468C0.202,-0.432 0.206,-0.393 0.211,-0.352C0.216,-0.31 0.218,-0.27 0.218,-0.231L0.218,-0L0.077,-0Z" style="fill:rgb(250,250,250);fill-rule:nonzero;"/>
                </g>
                <g transform="matrix(11.6017,0,0,11.6017,696.163,1855.97)">
                    <path d="M0.278,0.012C0.236,0.012 0.197,0.002 0.16,-0.019C0.123,-0.039 0.094,-0.069 0.07,-0.108C0.048,-0.147 0.036,-0.193 0.036,-0.248C0.036,-0.303 0.048,-0.349 0.07,-0.389C0.094,-0.428 0.123,-0.457 0.16,-0.477C0.197,-0.498 0.236,-0.508 0.278,-0.508C0.319,-0.508 0.358,-0.498 0.395,-0.477C0.432,-0.457 0.462,-0.428 0.485,-0.389C0.507,-0.349 0.519,-0.303 0.519,-0.248C0.519,-0.193 0.507,-0.147 0.485,-0.108C0.462,-0.069 0.432,-0.039 0.395,-0.019C0.358,0.002 0.319,0.012 0.278,0.012ZM0.278,-0.107C0.298,-0.107 0.315,-0.113 0.329,-0.124C0.342,-0.135 0.352,-0.152 0.359,-0.173C0.366,-0.194 0.369,-0.219 0.369,-0.248C0.369,-0.277 0.366,-0.302 0.359,-0.323C0.352,-0.344 0.342,-0.361 0.329,-0.372C0.315,-0.383 0.298,-0.389 0.278,-0.389C0.257,-0.389 0.24,-0.383 0.227,-0.372C0.214,-0.361 0.204,-0.344 0.197,-0.323C0.19,-0.302 0.187,-0.277 0.187,-0.248C0.187,-0.219 0.19,-0.194 0.197,-0.173C0.204,-0.152 0.214,-0.135 0.227,-0.124C0.24,-0.113 0.257,-0.107 0.278,-0.107Z" style="fill:rgb(250,250,250);fill-rule:nonzero;"/>
                </g>
                <g transform="matrix(11.6017,0,0,11.6017,702.602,1855.97)">
                    <path d="M0.065,-0L0.065,-0.496L0.185,-0.496L0.195,-0.409L0.199,-0.409C0.217,-0.442 0.238,-0.467 0.264,-0.484C0.289,-0.5 0.314,-0.508 0.34,-0.508C0.354,-0.508 0.366,-0.507 0.375,-0.505C0.384,-0.504 0.392,-0.501 0.399,-0.498L0.371,-0.373C0.363,-0.375 0.355,-0.377 0.348,-0.378C0.341,-0.379 0.332,-0.379 0.321,-0.379C0.302,-0.379 0.283,-0.372 0.263,-0.359C0.242,-0.346 0.225,-0.322 0.212,-0.288L0.212,-0L0.065,-0Z" style="fill:rgb(250,250,250);fill-rule:nonzero;"/>
                </g>
                <g transform="matrix(11.6017,0,0,11.6017,707.22,1855.97)">
                    <path d="M0.256,0.011C0.195,0.011 0.151,-0.007 0.124,-0.043C0.097,-0.078 0.084,-0.124 0.084,-0.181L0.084,-0.381L0.017,-0.381L0.017,-0.49L0.093,-0.496L0.11,-0.648L0.232,-0.648L0.232,-0.496L0.351,-0.496L0.351,-0.381L0.232,-0.381L0.232,-0.183C0.232,-0.155 0.238,-0.135 0.25,-0.123C0.261,-0.11 0.277,-0.104 0.296,-0.104C0.304,-0.104 0.312,-0.105 0.32,-0.106C0.328,-0.107 0.336,-0.109 0.343,-0.112L0.367,-0.009C0.354,-0.004 0.339,0.001 0.32,0.005C0.301,0.009 0.279,0.011 0.256,0.011Z" style="fill:rgb(250,250,250);fill-rule:nonzero;"/>
                </g>
                <g transform="matrix(11.6017,0,0,11.6017,711.663,1855.97)">
                    <path d="M0.065,-0L0.065,-0.701L0.212,-0.701L0.212,-0.529L0.205,-0.44C0.224,-0.457 0.246,-0.472 0.271,-0.487C0.296,-0.501 0.325,-0.508 0.358,-0.508C0.413,-0.508 0.452,-0.49 0.476,-0.455C0.5,-0.419 0.512,-0.37 0.512,-0.308L0.512,-0L0.365,-0L0.365,-0.289C0.365,-0.325 0.36,-0.35 0.35,-0.363C0.341,-0.376 0.325,-0.383 0.304,-0.383C0.285,-0.383 0.269,-0.379 0.256,-0.371C0.243,-0.362 0.228,-0.35 0.212,-0.335L0.212,-0L0.065,-0Z" style="fill:rgb(250,250,250);fill-rule:nonzero;"/>
                </g>
                <g transform="matrix(11.6017,0,0,11.6017,718.288,1855.97)">
                    <path d="M0.148,-0L0.024,-0.496L0.171,-0.496L0.218,-0.266C0.223,-0.243 0.227,-0.219 0.23,-0.195C0.233,-0.17 0.237,-0.144 0.24,-0.117L0.244,-0.117C0.249,-0.144 0.253,-0.17 0.258,-0.195C0.262,-0.22 0.267,-0.243 0.272,-0.266L0.324,-0.496L0.458,-0.496L0.513,-0.266C0.518,-0.243 0.523,-0.219 0.528,-0.195C0.533,-0.17 0.537,-0.144 0.542,-0.117L0.546,-0.117C0.551,-0.144 0.555,-0.17 0.558,-0.195C0.561,-0.219 0.564,-0.243 0.568,-0.266L0.615,-0.496L0.752,-0.496L0.633,-0L0.456,-0L0.414,-0.198C0.41,-0.221 0.406,-0.244 0.402,-0.267C0.397,-0.29 0.393,-0.316 0.389,-0.346L0.385,-0.346C0.382,-0.316 0.379,-0.29 0.375,-0.267C0.371,-0.244 0.367,-0.221 0.362,-0.198L0.321,-0L0.148,-0Z" style="fill:rgb(250,250,250);fill-rule:nonzero;"/>
                </g>
                <g transform="matrix(11.6017,0,0,11.6017,727.174,1855.97)">
                    <path d="M0.19,0.012C0.16,0.012 0.134,0.005 0.112,-0.008C0.089,-0.021 0.072,-0.039 0.06,-0.062C0.048,-0.085 0.042,-0.11 0.042,-0.138C0.042,-0.191 0.064,-0.233 0.108,-0.262C0.152,-0.291 0.223,-0.31 0.321,-0.32C0.32,-0.335 0.317,-0.347 0.312,-0.358C0.306,-0.368 0.297,-0.376 0.286,-0.382C0.275,-0.387 0.26,-0.39 0.243,-0.39C0.222,-0.39 0.201,-0.386 0.18,-0.379C0.159,-0.372 0.136,-0.361 0.111,-0.347L0.059,-0.443C0.08,-0.456 0.102,-0.468 0.125,-0.477C0.148,-0.487 0.171,-0.495 0.196,-0.5C0.22,-0.505 0.245,-0.508 0.271,-0.508C0.314,-0.508 0.349,-0.5 0.379,-0.484C0.407,-0.467 0.43,-0.443 0.445,-0.409C0.46,-0.377 0.468,-0.334 0.468,-0.283L0.468,-0L0.348,-0L0.338,-0.051L0.334,-0.051C0.313,-0.032 0.29,-0.017 0.267,-0.006C0.244,0.006 0.218,0.012 0.19,0.012ZM0.239,-0.103C0.256,-0.103 0.27,-0.107 0.283,-0.114C0.296,-0.121 0.308,-0.131 0.321,-0.144L0.321,-0.228C0.286,-0.223 0.259,-0.217 0.238,-0.21C0.218,-0.203 0.204,-0.194 0.196,-0.184C0.187,-0.173 0.183,-0.162 0.183,-0.149C0.183,-0.134 0.188,-0.122 0.199,-0.115C0.209,-0.107 0.222,-0.103 0.239,-0.103Z" style="fill:rgb(250,250,250);fill-rule:nonzero;"/>
                </g>
                <g transform="matrix(11.6017,0,0,11.6017,733.289,1855.97)">
                    <path d="M0.065,-0L0.065,-0.496L0.185,-0.496L0.195,-0.409L0.199,-0.409C0.217,-0.442 0.238,-0.467 0.264,-0.484C0.289,-0.5 0.314,-0.508 0.34,-0.508C0.354,-0.508 0.366,-0.507 0.375,-0.505C0.384,-0.504 0.392,-0.501 0.399,-0.498L0.371,-0.373C0.363,-0.375 0.355,-0.377 0.348,-0.378C0.341,-0.379 0.332,-0.379 0.321,-0.379C0.302,-0.379 0.283,-0.372 0.263,-0.359C0.242,-0.346 0.225,-0.322 0.212,-0.288L0.212,-0L0.065,-0Z" style="fill:rgb(250,250,250);fill-rule:nonzero;"/>
                </g>
                <g transform="matrix(11.6017,0,0,11.6017,737.79,1855.97)">
                    <path d="M0.287,0.012C0.24,0.012 0.197,0.002 0.159,-0.019C0.121,-0.04 0.091,-0.069 0.069,-0.108C0.047,-0.147 0.036,-0.193 0.036,-0.248C0.036,-0.302 0.047,-0.348 0.07,-0.387C0.092,-0.426 0.121,-0.456 0.157,-0.476C0.193,-0.498 0.231,-0.508 0.27,-0.508C0.317,-0.508 0.357,-0.498 0.388,-0.476C0.419,-0.456 0.443,-0.427 0.458,-0.391C0.473,-0.355 0.481,-0.315 0.481,-0.27C0.481,-0.257 0.48,-0.245 0.479,-0.233C0.478,-0.22 0.476,-0.21 0.475,-0.203L0.15,-0.203L0.148,-0.305L0.355,-0.305C0.355,-0.331 0.349,-0.353 0.336,-0.37C0.323,-0.387 0.302,-0.395 0.273,-0.395C0.257,-0.395 0.241,-0.391 0.226,-0.382C0.211,-0.373 0.198,-0.358 0.188,-0.337C0.178,-0.316 0.173,-0.286 0.174,-0.248C0.175,-0.211 0.182,-0.181 0.195,-0.16C0.207,-0.139 0.224,-0.124 0.244,-0.115C0.264,-0.106 0.285,-0.101 0.307,-0.101C0.326,-0.101 0.345,-0.104 0.363,-0.11C0.38,-0.115 0.398,-0.123 0.415,-0.133L0.463,-0.043C0.438,-0.026 0.41,-0.012 0.379,-0.003C0.348,0.007 0.317,0.012 0.287,0.012Z" style="fill:rgb(250,250,250);fill-rule:nonzero;"/>
                </g>
                <g transform="matrix(11.6017,0,0,11.6017,746.12,1855.97)">
                    <path d="M0.353,0.012C0.297,0.012 0.246,-0.001 0.2,-0.025C0.153,-0.051 0.116,-0.088 0.088,-0.138C0.06,-0.188 0.046,-0.249 0.046,-0.322C0.046,-0.376 0.054,-0.424 0.07,-0.467C0.087,-0.509 0.109,-0.545 0.138,-0.574C0.167,-0.603 0.2,-0.626 0.236,-0.641C0.274,-0.656 0.313,-0.664 0.354,-0.664C0.396,-0.664 0.434,-0.656 0.467,-0.639C0.5,-0.622 0.528,-0.602 0.55,-0.579L0.472,-0.49C0.456,-0.505 0.439,-0.517 0.42,-0.525C0.401,-0.532 0.38,-0.536 0.357,-0.536C0.328,-0.536 0.302,-0.528 0.278,-0.51C0.253,-0.494 0.234,-0.469 0.219,-0.438C0.204,-0.407 0.197,-0.37 0.197,-0.327C0.197,-0.282 0.204,-0.244 0.218,-0.213C0.232,-0.181 0.252,-0.157 0.277,-0.14C0.302,-0.123 0.33,-0.115 0.363,-0.115C0.388,-0.115 0.411,-0.12 0.431,-0.131C0.451,-0.142 0.469,-0.154 0.484,-0.169L0.558,-0.082C0.53,-0.051 0.499,-0.027 0.465,-0.012C0.431,0.004 0.394,0.012 0.353,0.012Z" style="fill:rgb(13,162,231);fill-rule:nonzero;"/>
                </g>
                <g transform="matrix(11.6017,0,0,11.6017,752.872,1855.97)">
                    <path d="M0.278,0.012C0.236,0.012 0.197,0.002 0.16,-0.019C0.123,-0.039 0.094,-0.069 0.07,-0.108C0.048,-0.147 0.036,-0.193 0.036,-0.248C0.036,-0.303 0.048,-0.349 0.07,-0.389C0.094,-0.428 0.123,-0.457 0.16,-0.477C0.197,-0.498 0.236,-0.508 0.278,-0.508C0.319,-0.508 0.358,-0.498 0.395,-0.477C0.432,-0.457 0.462,-0.428 0.485,-0.389C0.507,-0.349 0.519,-0.303 0.519,-0.248C0.519,-0.193 0.507,-0.147 0.485,-0.108C0.462,-0.069 0.432,-0.039 0.395,-0.019C0.358,0.002 0.319,0.012 0.278,0.012ZM0.278,-0.107C0.298,-0.107 0.315,-0.113 0.329,-0.124C0.342,-0.135 0.352,-0.152 0.359,-0.173C0.366,-0.194 0.369,-0.219 0.369,-0.248C0.369,-0.277 0.366,-0.302 0.359,-0.323C0.352,-0.344 0.342,-0.361 0.329,-0.372C0.315,-0.383 0.298,-0.389 0.278,-0.389C0.257,-0.389 0.24,-0.383 0.227,-0.372C0.214,-0.361 0.204,-0.344 0.197,-0.323C0.19,-0.302 0.187,-0.277 0.187,-0.248C0.187,-0.219 0.19,-0.194 0.197,-0.173C0.204,-0.152 0.214,-0.135 0.227,-0.124C0.24,-0.113 0.257,-0.107 0.278,-0.107Z" style="fill:rgb(13,162,231);fill-rule:nonzero;"/>
                </g>
                <g transform="matrix(11.6017,0,0,11.6017,759.311,1855.97)">
                    <path d="M0.284,0.012C0.237,0.012 0.195,0.002 0.158,-0.019C0.12,-0.04 0.09,-0.069 0.069,-0.108C0.047,-0.147 0.036,-0.193 0.036,-0.248C0.036,-0.303 0.048,-0.349 0.072,-0.388C0.096,-0.427 0.128,-0.456 0.167,-0.477C0.206,-0.498 0.249,-0.508 0.294,-0.508C0.325,-0.508 0.352,-0.503 0.377,-0.494C0.401,-0.484 0.422,-0.471 0.439,-0.455L0.37,-0.364C0.361,-0.371 0.352,-0.377 0.341,-0.382C0.33,-0.387 0.317,-0.389 0.303,-0.389C0.28,-0.389 0.259,-0.383 0.242,-0.372C0.225,-0.361 0.211,-0.344 0.201,-0.323C0.191,-0.302 0.186,-0.277 0.186,-0.248C0.186,-0.219 0.191,-0.194 0.201,-0.173C0.211,-0.152 0.225,-0.135 0.242,-0.124C0.259,-0.113 0.278,-0.107 0.299,-0.107C0.316,-0.107 0.331,-0.11 0.346,-0.116C0.361,-0.122 0.374,-0.13 0.387,-0.139L0.445,-0.049C0.424,-0.03 0.4,-0.016 0.372,-0.005C0.344,0.006 0.315,0.012 0.284,0.012Z" style="fill:rgb(13,162,231);fill-rule:nonzero;"/>
                </g>
                <g transform="matrix(11.6017,0,0,11.6017,764.741,1855.97)">
                    <path d="M0.065,-0L0.065,-0.701L0.21,-0.701L0.21,-0.301L0.214,-0.301L0.368,-0.496L0.529,-0.496L0.357,-0.29L0.542,-0L0.383,-0L0.271,-0.193L0.21,-0.124L0.21,-0L0.065,-0Z" style="fill:rgb(13,162,231);fill-rule:nonzero;"/>
                </g>
                <g transform="matrix(11.6017,0,0,11.6017,771.099,1855.97)">
                    <path d="M0.065,0.184L0.065,-0.496L0.185,-0.496L0.195,-0.447L0.199,-0.447C0.218,-0.465 0.24,-0.48 0.265,-0.491C0.29,-0.502 0.315,-0.508 0.34,-0.508C0.38,-0.508 0.414,-0.498 0.444,-0.477C0.472,-0.456 0.495,-0.427 0.51,-0.389C0.526,-0.351 0.534,-0.307 0.534,-0.256C0.534,-0.199 0.524,-0.151 0.504,-0.111C0.484,-0.071 0.458,-0.041 0.427,-0.02C0.395,0.001 0.361,0.012 0.325,0.012C0.304,0.012 0.284,0.007 0.264,-0.002C0.243,-0.011 0.224,-0.023 0.207,-0.04L0.212,0.039L0.212,0.184L0.065,0.184ZM0.291,-0.108C0.308,-0.108 0.323,-0.113 0.338,-0.123C0.352,-0.133 0.363,-0.149 0.371,-0.171C0.379,-0.192 0.383,-0.22 0.383,-0.254C0.383,-0.284 0.38,-0.309 0.374,-0.329C0.367,-0.348 0.358,-0.363 0.345,-0.373C0.332,-0.383 0.316,-0.388 0.297,-0.388C0.282,-0.388 0.268,-0.385 0.255,-0.378C0.241,-0.371 0.227,-0.359 0.212,-0.343L0.212,-0.14C0.225,-0.129 0.239,-0.121 0.253,-0.116C0.266,-0.111 0.279,-0.108 0.291,-0.108Z" style="fill:rgb(13,162,231);fill-rule:nonzero;"/>
                </g>
                <g transform="matrix(11.6017,0,0,11.6017,777.746,1855.97)">
                    <path d="M0.065,-0L0.065,-0.496L0.212,-0.496L0.212,-0L0.065,-0ZM0.138,-0.569C0.113,-0.569 0.093,-0.576 0.078,-0.59C0.063,-0.604 0.055,-0.623 0.055,-0.646C0.055,-0.669 0.063,-0.688 0.078,-0.702C0.093,-0.716 0.113,-0.723 0.138,-0.723C0.163,-0.723 0.183,-0.716 0.198,-0.702C0.213,-0.688 0.221,-0.669 0.221,-0.646C0.221,-0.623 0.213,-0.604 0.198,-0.59C0.183,-0.576 0.163,-0.569 0.138,-0.569Z" style="fill:rgb(13,162,231);fill-rule:nonzero;"/>
                </g>
                <g transform="matrix(11.6017,0,0,11.6017,780.948,1855.97)">
                    <path d="M0.256,0.011C0.195,0.011 0.151,-0.007 0.124,-0.043C0.097,-0.078 0.084,-0.124 0.084,-0.181L0.084,-0.381L0.017,-0.381L0.017,-0.49L0.093,-0.496L0.11,-0.648L0.232,-0.648L0.232,-0.496L0.351,-0.496L0.351,-0.381L0.232,-0.381L0.232,-0.183C0.232,-0.155 0.238,-0.135 0.25,-0.123C0.261,-0.11 0.277,-0.104 0.296,-0.104C0.304,-0.104 0.312,-0.105 0.32,-0.106C0.328,-0.107 0.336,-0.109 0.343,-0.112L0.367,-0.009C0.354,-0.004 0.339,0.001 0.32,0.005C0.301,0.009 0.279,0.011 0.256,0.011Z" style="fill:rgb(13,162,231);fill-rule:nonzero;"/>
                </g>
            </g>
            <g id="Icon-Cockpit" serif:id="Icon Cockpit" transform="matrix(0.324355,0,0,2.401,-185.782,512.145)">
                <g transform="matrix(2.19542,0,0,1.74303,196.688,-735.087)">
                    <g id="Polygon">
                        <path id="Polygon1" serif:id="Polygon" d="M342.108,675.915C346.376,674.941 351.627,674.941 355.895,675.915C370.132,679.166 402.643,686.588 416.916,689.847C421.206,690.826 423.851,692.641 423.851,694.606C423.851,701.119 423.851,715.919 423.851,722.431C423.851,724.396 421.206,726.211 416.916,727.191C402.643,730.449 370.132,737.872 355.895,741.122C351.627,742.096 346.376,742.096 342.108,741.122C327.871,737.872 295.359,730.449 281.087,727.191C276.797,726.211 274.152,724.396 274.152,722.431C274.152,715.919 274.152,701.119 274.152,694.606C274.152,692.641 276.797,690.826 281.087,689.847C295.359,686.588 327.871,679.166 342.108,675.915Z" style="fill:none;"/>
                        <clipPath id="_clip1">
                            <path id="Polygon2" serif:id="Polygon" d="M342.108,675.915C346.376,674.941 351.627,674.941 355.895,675.915C370.132,679.166 402.643,686.588 416.916,689.847C421.206,690.826 423.851,692.641 423.851,694.606C423.851,701.119 423.851,715.919 423.851,722.431C423.851,724.396 421.206,726.211 416.916,727.191C402.643,730.449 370.132,737.872 355.895,741.122C351.627,742.096 346.376,742.096 342.108,741.122C327.871,737.872 295.359,730.449 281.087,727.191C276.797,726.211 274.152,724.396 274.152,722.431C274.152,715.919 274.152,701.119 274.152,694.606C274.152,692.641 276.797,690.826 281.087,689.847C295.359,686.588 327.871,679.166 342.108,675.915Z"/>
                        </clipPath>
                        <g clip-path="url(#_clip1)">
                            <path id="HG" d="M342.108,675.915C346.376,674.941 351.627,674.941 355.895,675.915C370.132,679.166 402.643,686.588 416.916,689.847C421.206,690.826 423.851,692.641 423.851,694.606C423.851,701.119 423.851,715.919 423.851,722.431C423.851,724.396 421.206,726.211 416.916,727.191C402.643,730.449 370.132,737.872 355.895,741.122C351.627,742.096 346.376,742.096 342.108,741.122C327.871,737.872 295.359,730.449 281.087,727.191C276.797,726.211 274.152,724.396 274.152,722.431C274.152,715.919 274.152,701.119 274.152,694.606C274.152,692.641 276.797,690.826 281.087,689.847C295.359,686.588 327.871,679.166 342.108,675.915Z" style="fill:rgb(56,189,248);"/>
                            <g id="seite-rechts" serif:id="seite rechts" transform="matrix(0.345715,0,0,0.136709,223.852,622.939)">
                                <path d="M362,876L578.5,751L578.5,501L362,626L362,876Z" style="fill:rgb(14,165,233);"/>
                            </g>
                            <g id="seite-hinten" serif:id="seite hinten" transform="matrix(0.345715,0,0,0.136709,223.852,622.939)">
                                <path d="M362,376L578.5,501L578.5,751L362,626L362,376Z" style="fill:rgb(56,171,238);"/>
                            </g>
                            <g id="seite-links" serif:id="seite links" transform="matrix(0.345715,0,0,0.136709,223.852,622.939)">
                                <path d="M362,376L145.5,501L145.5,751L362,626L362,376Z" style="fill:rgb(56,170,241);"/>
                            </g>
                            <g id="seite-vorne" serif:id="seite vorne" transform="matrix(0.345715,0,0,0.136709,223.852,622.939)">
                                <path d="M145.5,501L145.5,751L362,876L362,626L145.5,501Z" style="fill:rgb(14,165,242);"/>
                            </g>
                        </g>
                    </g>
                </g>
                <g transform="matrix(0.277808,0,0,0.0872189,-149.943,387.795)">
                    <g id="Management">
                        <path id="Management1" serif:id="Management" d="M4107.96,1510.71L4107.96,1530.75C4107.96,1566.05 4079.26,1594.75 4043.96,1594.75L3659.96,1594.75C3624.66,1594.75 3595.96,1566.05 3595.96,1530.75L3595.96,1402.75L3787.96,1402.75L3787.96,1434.75C3787.96,1452.45 3802.26,1466.75 3819.96,1466.75L3883.96,1466.75C3901.38,1466.75 3915.51,1452.89 3915.92,1435.58C3967.03,1477.05 4033.86,1504.5 4107.96,1510.71ZM4415.02,1392.09C4416.35,1395.69 4415.23,1399.71 4412.37,1402.28L4394.43,1418.61C4394.88,1422.05 4395.13,1425.58 4395.13,1429.14C4395.13,1432.7 4394.88,1436.23 4394.43,1439.67L4412.37,1456C4415.23,1458.56 4416.35,1462.58 4415.02,1466.19C4413.2,1471.12 4411,1475.85 4408.48,1480.4L4406.53,1483.76C4403.79,1488.32 4400.73,1492.63 4397.37,1496.69C4394.92,1499.68 4390.86,1500.67 4387.22,1499.51L4364.13,1492.18C4358.58,1496.44 4352.44,1500.01 4345.9,1502.7L4340.71,1526.37C4339.89,1530.14 4336.98,1533.12 4333.17,1533.74C4327.45,1534.7 4321.57,1535.19 4315.56,1535.19C4309.55,1535.19 4303.66,1534.7 4297.94,1533.74C4294.13,1533.12 4291.23,1530.14 4290.4,1526.37L4285.22,1502.7C4278.67,1500.01 4272.54,1496.44 4266.98,1492.18L4243.94,1499.55C4240.3,1500.71 4236.23,1499.68 4233.79,1496.73C4230.43,1492.67 4227.36,1488.36 4224.63,1483.8L4222.68,1480.45C4220.15,1475.89 4217.96,1471.16 4216.13,1466.23C4214.81,1462.63 4215.93,1458.61 4218.78,1456.04L4236.73,1439.71C4236.27,1436.23 4236.03,1432.7 4236.03,1429.14C4236.03,1425.58 4236.27,1422.05 4236.73,1418.61L4218.78,1402.28C4215.93,1399.71 4214.81,1395.69 4216.13,1392.09C4217.96,1387.16 4220.15,1382.43 4222.68,1377.87L4224.63,1374.52C4227.36,1369.96 4230.43,1365.65 4233.79,1361.59C4236.23,1358.6 4240.3,1357.61 4243.94,1358.77L4267.03,1366.1C4272.58,1361.83 4278.71,1358.27 4285.26,1355.58L4290.44,1331.91C4291.27,1328.14 4294.17,1325.15 4297.98,1324.53C4303.7,1323.54 4309.59,1323.04 4315.6,1323.04C4321.61,1323.04 4327.49,1323.54 4333.21,1324.49C4337.03,1325.11 4339.93,1328.1 4340.76,1331.87L4345.94,1355.53C4352.48,1358.23 4358.62,1361.79 4364.17,1366.06L4387.26,1358.73C4390.9,1357.57 4394.97,1358.6 4397.41,1361.54C4400.77,1365.61 4403.83,1369.91 4406.57,1374.47L4408.52,1377.83C4411.05,1382.39 4413.24,1387.11 4415.07,1392.05L4415.02,1392.09ZM4203.22,1463.6L4152.26,1463.55C4143.96,1477.85 4128.46,1487.55 4110.66,1487.55L4078.66,1487.55C4052.16,1487.55 4030.66,1466.05 4030.66,1439.55C4030.66,1413.05 4052.16,1391.55 4078.66,1391.55L4110.66,1391.55C4128.46,1391.55 4143.96,1401.25 4152.26,1415.55L4202.96,1415.6C4201.66,1423.14 4201,1430.9 4201,1438.83C4201,1447.29 4201.75,1455.57 4203.22,1463.6ZM4315.6,1462.29C4333.79,1462.29 4348.76,1447.33 4348.76,1429.14C4348.76,1410.95 4333.79,1395.98 4315.6,1395.98C4297.41,1395.98 4282.44,1410.95 4282.44,1429.14C4282.44,1447.33 4297.41,1462.29 4315.6,1462.29ZM3846.09,1114.75C3837.55,1130.03 3830.59,1146.08 3825.43,1162.75L3779.96,1162.75C3775.56,1162.75 3771.96,1166.35 3771.96,1170.75L3771.96,1210.75L3815.71,1210.75C3814.93,1218.47 3814.55,1226.26 3814.55,1234.13C3814.55,1283.79 3829.83,1330.41 3856.61,1370.75L3595.96,1370.75L3595.96,1274.75C3595.96,1239.45 3624.66,1210.75 3659.96,1210.75L3723.96,1210.75L3723.96,1170.75C3723.96,1139.85 3749.06,1114.75 3779.96,1114.75L3846.09,1114.75ZM3982.66,1183.55L3998.66,1183.55C4016.36,1183.55 4030.66,1197.85 4030.66,1215.55L4030.66,1327.55C4030.66,1345.25 4016.36,1359.55 3998.66,1359.55L3982.66,1359.55C3947.36,1359.55 3918.66,1330.85 3918.66,1295.55L3918.66,1247.55C3918.66,1212.25 3947.36,1183.55 3982.66,1183.55ZM4228.68,1355.65C4221.81,1358.18 4214.39,1359.55 4206.66,1359.55L4190.66,1359.55C4172.96,1359.55 4158.66,1345.25 4158.66,1327.55L4158.66,1215.55C4158.66,1197.85 4172.96,1183.55 4190.66,1183.55L4206.66,1183.55C4241.96,1183.55 4270.66,1212.25 4270.66,1247.55L4270.66,1295.55C4270.66,1305.52 4268.38,1314.95 4264.3,1323.36C4250.59,1331.7 4238.5,1342.67 4228.68,1355.65ZM4302.66,1308.14L4302.66,1231.55C4302.66,1116.65 4209.56,1023.55 4094.66,1023.55C3979.76,1023.55 3886.66,1116.65 3886.66,1231.55L3886.66,1271.55C3886.66,1284.85 3875.96,1295.55 3862.66,1295.55C3849.36,1295.55 3838.66,1284.85 3838.66,1271.55L3838.66,1231.55C3838.66,1090.15 3953.26,975.554 4094.66,975.554C4236.06,975.554 4350.66,1090.15 4350.66,1231.55L4350.66,1307.94C4343.06,1306.39 4335.2,1305.6 4327.18,1305.6C4318.78,1305.6 4310.58,1306.47 4302.66,1308.14Z" style="fill:white;"/>
                    </g>
                </g>
            </g>
        </g>
    </g>
</svg>
