<?xml version="1.0" encoding="UTF-8" standalone="no"?><!DOCTYPE svg PUBLIC "-//W3C//DTD SVG 1.1//EN" "http://www.w3.org/Graphics/SVG/1.1/DTD/svg11.dtd"><svg width="100%" height="100%" viewBox="0 0 2138 2138" version="1.1" xmlns="http://www.w3.org/2000/svg" xmlns:xlink="http://www.w3.org/1999/xlink" xml:space="preserve" xmlns:serif="http://www.serif.com/" style="fill-rule:evenodd;clip-rule:evenodd;stroke-linejoin:round;stroke-miterlimit:2;"><rect id="Icon-Admin-Inverse" serif:id="Icon Admin Inverse" x="2.191" y="1.777" width="2133.33" height="2133.33" style="fill:none;"/><g id="Icon-Cockpit" serif:id="Icon Cockpit"><g id="Polygon"><path id="Polygon1" serif:id="Polygon" d="M985.524,74.889c51.567,-29.772 115.1,-29.772 166.667,0c171.804,99.191 563.639,325.418 735.443,424.609c51.567,29.772 83.334,84.793 83.334,144.337c-0,198.382 -0,650.835 -0,849.217c-0,59.544 -31.767,114.565 -83.334,144.337c-171.804,99.191 -563.639,325.418 -735.443,424.609c-51.567,29.772 -115.1,29.772 -166.667,-0c-171.803,-99.191 -563.639,-325.418 -735.443,-424.609c-51.567,-29.772 -83.333,-84.793 -83.333,-144.337l-0,-849.217c-0,-59.544 31.766,-114.565 83.333,-144.337c171.804,-99.191 563.64,-325.418 735.443,-424.609Z" style="fill:none;"/><clipPath id="_clip1"><path id="Polygon2" serif:id="Polygon" d="M985.524,74.889c51.567,-29.772 115.1,-29.772 166.667,0c171.804,99.191 563.639,325.418 735.443,424.609c51.567,29.772 83.334,84.793 83.334,144.337c-0,198.382 -0,650.835 -0,849.217c-0,59.544 -31.767,114.565 -83.334,144.337c-171.804,99.191 -563.639,325.418 -735.443,424.609c-51.567,29.772 -115.1,29.772 -166.667,-0c-171.803,-99.191 -563.639,-325.418 -735.443,-424.609c-51.567,-29.772 -83.333,-84.793 -83.333,-144.337l-0,-849.217c-0,-59.544 31.766,-114.565 83.333,-144.337c171.804,-99.191 563.64,-325.418 735.443,-424.609Z"/></clipPath><g clip-path="url(#_clip1)"><path id="HG" d="M985.524,74.889c51.567,-29.772 115.1,-29.772 166.667,0c171.804,99.191 563.639,325.418 735.443,424.609c51.567,29.772 83.334,84.793 83.334,144.337c-0,198.382 -0,650.835 -0,849.217c-0,59.544 -31.767,114.565 -83.334,144.337c-171.804,99.191 -563.639,325.418 -735.443,424.609c-51.567,29.772 -115.1,29.772 -166.667,-0c-171.803,-99.191 -563.639,-325.418 -735.443,-424.609c-51.567,-29.772 -83.333,-84.793 -83.333,-144.337l-0,-849.217c-0,-59.544 31.766,-114.565 83.333,-144.337c171.804,-99.191 563.64,-325.418 735.443,-424.609Z" style="fill:#2dd4bf;"/><path id="seite-rechts" serif:id="seite rechts" d="M1068.86,2110.11l902.083,-520.833l0,-1041.67l-902.083,520.833l-0,1041.67Z" style="fill:#14b8a6;"/><path id="seite-hinten" serif:id="seite hinten" d="M1068.86,26.777l902.083,520.833l0,1041.67l-902.083,-520.834l-0,-1041.67Z" style="fill:#01c0a6;"/><path id="seite-links" serif:id="seite links" d="M1068.86,26.777l-902.084,520.833l0,1041.67l902.084,-520.834l-0,-1041.67Z" style="fill:#01c2a6;"/><path id="seite-vorne" serif:id="seite vorne" d="M166.774,547.61l0,1041.67l902.084,520.833l-0,-1041.67l-902.084,-520.833Z" style="fill:#14b4a6;"/></g></g><path d="M1265.59,1492.58c-4.31,-2.34 -8.557,-4.79 -12.744,-7.356l-14.634,8.41c-11.234,6.558 -24.014,10.017 -36.967,10.017c-20.046,0 -39.55,-8.408 -54.224,-23.865c-34.459,-37.603 -60.439,-82.637 -75.282,-130.835c-10.017,-33.803 4.386,-69.011 33.373,-84.677l15.008,-8.739c-0.124,-4.906 -0.124,-9.812 0,-14.711l-14.328,-8.349c-23.023,-13.015 -36.312,-36.799 -36.761,-62.479c-27.114,-7.405 -55.565,-11.71 -84.951,-11.71l-189.795,0c-179.107,0 -324.374,145.435 -324.374,324.561c0,35.75 29.05,64.762 64.875,64.762l708.718,0c10.719,0 20.402,-3.232 29.311,-7.839c-4.251,-9.329 -7.225,-19.279 -7.225,-30.06l0,-17.13Zm-376.408,-424.138c132.333,0 239.584,-107.269 239.584,-239.583c-0,-132.314 -107.251,-239.583 -239.584,-239.583c-132.332,-0 -239.583,107.269 -239.583,239.583c-0,132.314 107.251,239.583 239.583,239.583Zm723.43,219.556c4.913,-26.204 4.913,-53.345 -0,-79.549l48.197,-28.076c5.615,-3.042 8.189,-9.593 6.317,-15.91c-12.634,-40.243 -34.159,-76.985 -62.235,-107.401c-4.212,-4.679 -11.231,-5.849 -16.846,-2.574l-48.197,27.852c-20.365,-17.314 -43.762,-30.884 -69.03,-39.775l-0,-55.918c-0,-6.317 -4.68,-11.932 -10.763,-13.102c-41.646,-9.359 -84.228,-9.125 -124.003,-0c-6.083,1.17 -10.529,6.785 -10.529,13.102l0,55.928c-25.268,8.891 -48.665,22.461 -69.03,39.774l-48.365,-27.945c-5.382,-3.275 -12.401,-2.105 -16.846,2.574c-28.076,30.416 -49.601,67.158 -62.011,107.401c-1.872,6.317 0.702,12.868 6.083,15.909l48.198,28.077c-4.68,26.204 -4.68,53.344 -0,79.549l-48.198,28.076c-5.615,3.042 -7.955,9.593 -6.083,15.91c12.4,40.242 33.935,76.741 62.011,107.401c4.445,4.679 11.23,5.849 16.846,2.573l48.44,-27.851c20.365,17.313 43.762,30.883 69.03,39.774l0,55.928c0,6.317 4.446,11.932 10.529,13.102c41.89,9.359 84.228,9.125 124.003,0c6.083,-1.17 10.763,-6.785 10.763,-13.102l-0,-55.928c25.268,-8.891 48.665,-22.461 69.03,-39.774l48.197,27.851c5.381,3.276 12.634,2.106 16.846,-2.573c28.076,-30.416 49.601,-67.159 62.235,-107.401c1.872,-6.317 -0.702,-12.868 -6.317,-15.91l-48.272,-27.992Zm-214.315,50.911c-50.069,0 -90.78,-40.71 -90.78,-90.779c0,-50.069 40.711,-90.78 90.78,-90.78c50.069,0 90.78,40.711 90.78,90.78c-0,50.069 -40.617,90.779 -90.78,90.779Z" style="fill:#fff;fill-rule:nonzero;"/></g></svg>