<?xml version="1.0" encoding="UTF-8" standalone="no"?>
<!DOCTYPE svg PUBLIC "-//W3C//DTD SVG 1.1//EN" "http://www.w3.org/Graphics/SVG/1.1/DTD/svg11.dtd">
<svg width="100%" height="100%" viewBox="0 0 2130 301" version="1.1" xmlns="http://www.w3.org/2000/svg" xmlns:xlink="http://www.w3.org/1999/xlink" xml:space="preserve" xmlns:serif="http://www.serif.com/" style="fill-rule:evenodd;clip-rule:evenodd;stroke-linejoin:round;stroke-miterlimit:2;">
    <g transform="matrix(1,0,0,1,0,-2395)">
        <g id="Logo-Docs-Dark" serif:id="Logo Docs Dark" transform="matrix(0.695371,0,0,0.240707,1064.8,1971.15)">
            <rect x="-1531.27" y="1760.98" width="3063.11" height="1246.33" style="fill:none;"/>
            <g transform="matrix(29.749,0,0,85.9409,-21602.8,-156745)">
                <g transform="matrix(12.6652,0,0,12.6652,688.448,1855.97)">
                    <path d="M0.077,-0L0.077,-0.652L0.231,-0.652L0.398,-0.331C0.41,-0.309 0.421,-0.285 0.432,-0.261C0.442,-0.235 0.452,-0.21 0.462,-0.184L0.466,-0.184C0.463,-0.219 0.459,-0.258 0.454,-0.3C0.449,-0.342 0.447,-0.382 0.447,-0.421L0.447,-0.652L0.588,-0.652L0.588,-0L0.434,-0L0.267,-0.321C0.256,-0.343 0.245,-0.367 0.234,-0.392C0.223,-0.417 0.212,-0.443 0.202,-0.468L0.198,-0.468C0.202,-0.432 0.206,-0.393 0.211,-0.352C0.216,-0.31 0.218,-0.27 0.218,-0.231L0.218,-0L0.077,-0Z" style="fill:white;fill-rule:nonzero;"/>
                </g>
                <g transform="matrix(12.6652,0,0,12.6652,696.87,1855.97)">
                    <path d="M0.278,0.012C0.236,0.012 0.197,0.002 0.16,-0.019C0.123,-0.039 0.094,-0.069 0.07,-0.108C0.048,-0.147 0.036,-0.193 0.036,-0.248C0.036,-0.303 0.048,-0.349 0.07,-0.389C0.094,-0.428 0.123,-0.457 0.16,-0.477C0.197,-0.498 0.236,-0.508 0.278,-0.508C0.319,-0.508 0.358,-0.498 0.395,-0.477C0.432,-0.457 0.462,-0.428 0.485,-0.389C0.507,-0.349 0.519,-0.303 0.519,-0.248C0.519,-0.193 0.507,-0.147 0.485,-0.108C0.462,-0.069 0.432,-0.039 0.395,-0.019C0.358,0.002 0.319,0.012 0.278,0.012ZM0.278,-0.107C0.298,-0.107 0.315,-0.113 0.329,-0.124C0.342,-0.135 0.352,-0.152 0.359,-0.173C0.366,-0.194 0.369,-0.219 0.369,-0.248C0.369,-0.277 0.366,-0.302 0.359,-0.323C0.352,-0.344 0.342,-0.361 0.329,-0.372C0.315,-0.383 0.298,-0.389 0.278,-0.389C0.257,-0.389 0.24,-0.383 0.227,-0.372C0.214,-0.361 0.204,-0.344 0.197,-0.323C0.19,-0.302 0.187,-0.277 0.187,-0.248C0.187,-0.219 0.19,-0.194 0.197,-0.173C0.204,-0.152 0.214,-0.135 0.227,-0.124C0.24,-0.113 0.257,-0.107 0.278,-0.107Z" style="fill:white;fill-rule:nonzero;"/>
                </g>
                <g transform="matrix(12.6652,0,0,12.6652,703.9,1855.97)">
                    <path d="M0.065,-0L0.065,-0.496L0.185,-0.496L0.195,-0.409L0.199,-0.409C0.217,-0.442 0.238,-0.467 0.264,-0.484C0.289,-0.5 0.314,-0.508 0.34,-0.508C0.354,-0.508 0.366,-0.507 0.375,-0.505C0.384,-0.504 0.392,-0.501 0.399,-0.498L0.371,-0.373C0.363,-0.375 0.355,-0.377 0.348,-0.378C0.341,-0.379 0.332,-0.379 0.321,-0.379C0.302,-0.379 0.283,-0.372 0.263,-0.359C0.242,-0.346 0.225,-0.322 0.212,-0.288L0.212,-0L0.065,-0Z" style="fill:white;fill-rule:nonzero;"/>
                </g>
                <g transform="matrix(12.6652,0,0,12.6652,708.94,1855.97)">
                    <path d="M0.256,0.011C0.195,0.011 0.151,-0.007 0.124,-0.043C0.097,-0.078 0.084,-0.124 0.084,-0.181L0.084,-0.381L0.017,-0.381L0.017,-0.49L0.093,-0.496L0.11,-0.648L0.232,-0.648L0.232,-0.496L0.351,-0.496L0.351,-0.381L0.232,-0.381L0.232,-0.183C0.232,-0.155 0.238,-0.135 0.25,-0.123C0.261,-0.11 0.277,-0.104 0.296,-0.104C0.304,-0.104 0.312,-0.105 0.32,-0.106C0.328,-0.107 0.336,-0.109 0.343,-0.112L0.367,-0.009C0.354,-0.004 0.339,0.001 0.32,0.005C0.301,0.009 0.279,0.011 0.256,0.011Z" style="fill:white;fill-rule:nonzero;"/>
                </g>
                <g transform="matrix(12.6652,0,0,12.6652,713.791,1855.97)">
                    <path d="M0.065,-0L0.065,-0.701L0.212,-0.701L0.212,-0.529L0.205,-0.44C0.224,-0.457 0.246,-0.472 0.271,-0.487C0.296,-0.501 0.325,-0.508 0.358,-0.508C0.413,-0.508 0.452,-0.49 0.476,-0.455C0.5,-0.419 0.512,-0.37 0.512,-0.308L0.512,-0L0.365,-0L0.365,-0.289C0.365,-0.325 0.36,-0.35 0.35,-0.363C0.341,-0.376 0.325,-0.383 0.304,-0.383C0.285,-0.383 0.269,-0.379 0.256,-0.371C0.243,-0.362 0.228,-0.35 0.212,-0.335L0.212,-0L0.065,-0Z" style="fill:white;fill-rule:nonzero;"/>
                </g>
                <g transform="matrix(12.6652,0,0,12.6652,721.023,1855.97)">
                    <path d="M0.148,-0L0.024,-0.496L0.171,-0.496L0.218,-0.266C0.223,-0.243 0.227,-0.219 0.23,-0.195C0.233,-0.17 0.237,-0.144 0.24,-0.117L0.244,-0.117C0.249,-0.144 0.253,-0.17 0.258,-0.195C0.262,-0.22 0.267,-0.243 0.272,-0.266L0.324,-0.496L0.458,-0.496L0.513,-0.266C0.518,-0.243 0.523,-0.219 0.528,-0.195C0.533,-0.17 0.537,-0.144 0.542,-0.117L0.546,-0.117C0.551,-0.144 0.555,-0.17 0.558,-0.195C0.561,-0.219 0.564,-0.243 0.568,-0.266L0.615,-0.496L0.752,-0.496L0.633,-0L0.456,-0L0.414,-0.198C0.41,-0.221 0.406,-0.244 0.402,-0.267C0.397,-0.29 0.393,-0.316 0.389,-0.346L0.385,-0.346C0.382,-0.316 0.379,-0.29 0.375,-0.267C0.371,-0.244 0.367,-0.221 0.362,-0.198L0.321,-0L0.148,-0Z" style="fill:white;fill-rule:nonzero;"/>
                </g>
                <g transform="matrix(12.6652,0,0,12.6652,730.724,1855.97)">
                    <path d="M0.19,0.012C0.16,0.012 0.134,0.005 0.112,-0.008C0.089,-0.021 0.072,-0.039 0.06,-0.062C0.048,-0.085 0.042,-0.11 0.042,-0.138C0.042,-0.191 0.064,-0.233 0.108,-0.262C0.152,-0.291 0.223,-0.31 0.321,-0.32C0.32,-0.335 0.317,-0.347 0.312,-0.358C0.306,-0.368 0.297,-0.376 0.286,-0.382C0.275,-0.387 0.26,-0.39 0.243,-0.39C0.222,-0.39 0.201,-0.386 0.18,-0.379C0.159,-0.372 0.136,-0.361 0.111,-0.347L0.059,-0.443C0.08,-0.456 0.102,-0.468 0.125,-0.477C0.148,-0.487 0.171,-0.495 0.196,-0.5C0.22,-0.505 0.245,-0.508 0.271,-0.508C0.314,-0.508 0.349,-0.5 0.379,-0.484C0.407,-0.467 0.43,-0.443 0.445,-0.409C0.46,-0.377 0.468,-0.334 0.468,-0.283L0.468,-0L0.348,-0L0.338,-0.051L0.334,-0.051C0.313,-0.032 0.29,-0.017 0.267,-0.006C0.244,0.006 0.218,0.012 0.19,0.012ZM0.239,-0.103C0.256,-0.103 0.27,-0.107 0.283,-0.114C0.296,-0.121 0.308,-0.131 0.321,-0.144L0.321,-0.228C0.286,-0.223 0.259,-0.217 0.238,-0.21C0.218,-0.203 0.204,-0.194 0.196,-0.184C0.187,-0.173 0.183,-0.162 0.183,-0.149C0.183,-0.134 0.188,-0.122 0.199,-0.115C0.209,-0.107 0.222,-0.103 0.239,-0.103Z" style="fill:white;fill-rule:nonzero;"/>
                </g>
                <g transform="matrix(12.6652,0,0,12.6652,737.399,1855.97)">
                    <path d="M0.065,-0L0.065,-0.496L0.185,-0.496L0.195,-0.409L0.199,-0.409C0.217,-0.442 0.238,-0.467 0.264,-0.484C0.289,-0.5 0.314,-0.508 0.34,-0.508C0.354,-0.508 0.366,-0.507 0.375,-0.505C0.384,-0.504 0.392,-0.501 0.399,-0.498L0.371,-0.373C0.363,-0.375 0.355,-0.377 0.348,-0.378C0.341,-0.379 0.332,-0.379 0.321,-0.379C0.302,-0.379 0.283,-0.372 0.263,-0.359C0.242,-0.346 0.225,-0.322 0.212,-0.288L0.212,-0L0.065,-0Z" style="fill:white;fill-rule:nonzero;"/>
                </g>
                <g transform="matrix(12.6652,0,0,12.6652,742.313,1855.97)">
                    <path d="M0.287,0.012C0.24,0.012 0.197,0.002 0.159,-0.019C0.121,-0.04 0.091,-0.069 0.069,-0.108C0.047,-0.147 0.036,-0.193 0.036,-0.248C0.036,-0.302 0.047,-0.348 0.07,-0.387C0.092,-0.426 0.121,-0.456 0.157,-0.476C0.193,-0.498 0.231,-0.508 0.27,-0.508C0.317,-0.508 0.357,-0.498 0.388,-0.476C0.419,-0.456 0.443,-0.427 0.458,-0.391C0.473,-0.355 0.481,-0.315 0.481,-0.27C0.481,-0.257 0.48,-0.245 0.479,-0.233C0.478,-0.22 0.476,-0.21 0.475,-0.203L0.15,-0.203L0.148,-0.305L0.355,-0.305C0.355,-0.331 0.349,-0.353 0.336,-0.37C0.323,-0.387 0.302,-0.395 0.273,-0.395C0.257,-0.395 0.241,-0.391 0.226,-0.382C0.211,-0.373 0.198,-0.358 0.188,-0.337C0.178,-0.316 0.173,-0.286 0.174,-0.248C0.175,-0.211 0.182,-0.181 0.195,-0.16C0.207,-0.139 0.224,-0.124 0.244,-0.115C0.264,-0.106 0.285,-0.101 0.307,-0.101C0.326,-0.101 0.345,-0.104 0.363,-0.11C0.38,-0.115 0.398,-0.123 0.415,-0.133L0.463,-0.043C0.438,-0.026 0.41,-0.012 0.379,-0.003C0.348,0.007 0.317,0.012 0.287,0.012Z" style="fill:white;fill-rule:nonzero;"/>
                </g>
                <g transform="matrix(12.6652,0,0,12.6652,751.407,1855.97)">
                    <path d="M0.077,-0L0.077,-0.652L0.261,-0.652C0.328,-0.652 0.386,-0.641 0.435,-0.618C0.484,-0.595 0.521,-0.56 0.548,-0.513C0.575,-0.465 0.588,-0.404 0.588,-0.329C0.588,-0.254 0.575,-0.193 0.548,-0.144C0.521,-0.095 0.484,-0.059 0.437,-0.035C0.389,-0.012 0.333,-0 0.27,-0L0.077,-0ZM0.224,-0.119L0.252,-0.119C0.289,-0.119 0.322,-0.126 0.349,-0.139C0.377,-0.152 0.399,-0.174 0.414,-0.205C0.429,-0.236 0.437,-0.277 0.437,-0.329C0.437,-0.381 0.429,-0.422 0.414,-0.452C0.399,-0.481 0.377,-0.502 0.349,-0.515C0.322,-0.527 0.289,-0.533 0.252,-0.533L0.224,-0.533L0.224,-0.119Z" style="fill:rgb(13,162,231);fill-rule:nonzero;"/>
                </g>
                <g transform="matrix(12.6652,0,0,12.6652,759.449,1855.97)">
                    <path d="M0.278,0.012C0.236,0.012 0.197,0.002 0.16,-0.019C0.123,-0.039 0.094,-0.069 0.07,-0.108C0.048,-0.147 0.036,-0.193 0.036,-0.248C0.036,-0.303 0.048,-0.349 0.07,-0.389C0.094,-0.428 0.123,-0.457 0.16,-0.477C0.197,-0.498 0.236,-0.508 0.278,-0.508C0.319,-0.508 0.358,-0.498 0.395,-0.477C0.432,-0.457 0.462,-0.428 0.485,-0.389C0.507,-0.349 0.519,-0.303 0.519,-0.248C0.519,-0.193 0.507,-0.147 0.485,-0.108C0.462,-0.069 0.432,-0.039 0.395,-0.019C0.358,0.002 0.319,0.012 0.278,0.012ZM0.278,-0.107C0.298,-0.107 0.315,-0.113 0.329,-0.124C0.342,-0.135 0.352,-0.152 0.359,-0.173C0.366,-0.194 0.369,-0.219 0.369,-0.248C0.369,-0.277 0.366,-0.302 0.359,-0.323C0.352,-0.344 0.342,-0.361 0.329,-0.372C0.315,-0.383 0.298,-0.389 0.278,-0.389C0.257,-0.389 0.24,-0.383 0.227,-0.372C0.214,-0.361 0.204,-0.344 0.197,-0.323C0.19,-0.302 0.187,-0.277 0.187,-0.248C0.187,-0.219 0.19,-0.194 0.197,-0.173C0.204,-0.152 0.214,-0.135 0.227,-0.124C0.24,-0.113 0.257,-0.107 0.278,-0.107Z" style="fill:rgb(13,162,231);fill-rule:nonzero;"/>
                </g>
                <g transform="matrix(12.6652,0,0,12.6652,766.478,1855.97)">
                    <path d="M0.284,0.012C0.237,0.012 0.195,0.002 0.158,-0.019C0.12,-0.04 0.09,-0.069 0.069,-0.108C0.047,-0.147 0.036,-0.193 0.036,-0.248C0.036,-0.303 0.048,-0.349 0.072,-0.388C0.096,-0.427 0.128,-0.456 0.167,-0.477C0.206,-0.498 0.249,-0.508 0.294,-0.508C0.325,-0.508 0.352,-0.503 0.377,-0.494C0.401,-0.484 0.422,-0.471 0.439,-0.455L0.37,-0.364C0.361,-0.371 0.352,-0.377 0.341,-0.382C0.33,-0.387 0.317,-0.389 0.303,-0.389C0.28,-0.389 0.259,-0.383 0.242,-0.372C0.225,-0.361 0.211,-0.344 0.201,-0.323C0.191,-0.302 0.186,-0.277 0.186,-0.248C0.186,-0.219 0.191,-0.194 0.201,-0.173C0.211,-0.152 0.225,-0.135 0.242,-0.124C0.259,-0.113 0.278,-0.107 0.299,-0.107C0.316,-0.107 0.331,-0.11 0.346,-0.116C0.361,-0.122 0.374,-0.13 0.387,-0.139L0.445,-0.049C0.424,-0.03 0.4,-0.016 0.372,-0.005C0.344,0.006 0.315,0.012 0.284,0.012Z" style="fill:rgb(13,162,231);fill-rule:nonzero;"/>
                </g>
                <g transform="matrix(12.6652,0,0,12.6652,772.406,1855.97)">
                    <path d="M0.211,0.012C0.178,0.012 0.145,0.006 0.11,-0.007C0.075,-0.02 0.046,-0.038 0.021,-0.062L0.083,-0.145C0.106,-0.127 0.128,-0.115 0.151,-0.108C0.173,-0.101 0.194,-0.097 0.215,-0.097C0.237,-0.097 0.253,-0.101 0.263,-0.109C0.273,-0.116 0.278,-0.126 0.278,-0.139C0.278,-0.15 0.274,-0.16 0.265,-0.167C0.256,-0.174 0.244,-0.181 0.23,-0.187C0.215,-0.192 0.199,-0.198 0.181,-0.205C0.157,-0.214 0.135,-0.225 0.115,-0.238C0.095,-0.251 0.079,-0.267 0.067,-0.286C0.054,-0.305 0.048,-0.327 0.048,-0.353C0.048,-0.4 0.066,-0.437 0.101,-0.466C0.136,-0.494 0.181,-0.508 0.238,-0.508C0.274,-0.508 0.307,-0.502 0.337,-0.491C0.366,-0.479 0.392,-0.464 0.413,-0.445L0.35,-0.363C0.332,-0.376 0.314,-0.385 0.296,-0.391C0.278,-0.396 0.26,-0.399 0.243,-0.399C0.224,-0.399 0.209,-0.395 0.2,-0.388C0.191,-0.381 0.186,-0.371 0.186,-0.36C0.186,-0.351 0.189,-0.343 0.196,-0.336C0.203,-0.329 0.213,-0.323 0.227,-0.318C0.24,-0.312 0.257,-0.306 0.278,-0.299C0.303,-0.29 0.327,-0.28 0.347,-0.267C0.369,-0.254 0.385,-0.237 0.397,-0.218C0.409,-0.199 0.415,-0.175 0.415,-0.148C0.415,-0.118 0.407,-0.091 0.392,-0.067C0.376,-0.043 0.353,-0.024 0.323,-0.01C0.293,0.005 0.256,0.012 0.211,0.012Z" style="fill:rgb(13,162,231);fill-rule:nonzero;"/>
                </g>
            </g>
            <g transform="matrix(0.803295,0,0,2.47697,-4261.18,-726.039)">
                <g transform="matrix(3.107,0,0,7.36116,2546.61,-3959.87)">
                    <g id="Polygon">
                        <path id="Polygon1" serif:id="Polygon" d="M337.477,676.972C344.608,675.344 353.394,675.344 360.525,676.972C374.597,680.185 398.255,685.586 412.327,688.799C419.458,690.427 423.851,693.436 423.851,696.692L423.851,720.345C423.851,723.601 419.458,726.61 412.327,728.238C398.255,731.451 374.597,736.852 360.525,740.065C353.394,741.693 344.608,741.693 337.477,740.065C323.406,736.852 299.747,731.451 285.676,728.238C278.545,726.61 274.152,723.601 274.152,720.345L274.152,696.692C274.152,693.436 278.545,690.427 285.676,688.799C299.747,685.586 323.406,680.185 337.477,676.972Z" style="fill:none;"/>
                        <clipPath id="_clip1">
                            <path id="Polygon2" serif:id="Polygon" d="M337.477,676.972C344.608,675.344 353.394,675.344 360.525,676.972C374.597,680.185 398.255,685.586 412.327,688.799C419.458,690.427 423.851,693.436 423.851,696.692L423.851,720.345C423.851,723.601 419.458,726.61 412.327,728.238C398.255,731.451 374.597,736.852 360.525,740.065C353.394,741.693 344.608,741.693 337.477,740.065C323.406,736.852 299.747,731.451 285.676,728.238C278.545,726.61 274.152,723.601 274.152,720.345L274.152,696.692C274.152,693.436 278.545,690.427 285.676,688.799C299.747,685.586 323.406,680.185 337.477,676.972Z"/>
                        </clipPath>
                        <g clip-path="url(#_clip1)">
                            <path id="HG" d="M337.477,676.972C344.608,675.344 353.394,675.344 360.525,676.972C374.597,680.185 398.255,685.586 412.327,688.799C419.458,690.427 423.851,693.436 423.851,696.692L423.851,720.345C423.851,723.601 419.458,726.61 412.327,728.238C398.255,731.451 374.597,736.852 360.525,740.065C353.394,741.693 344.608,741.693 337.477,740.065C323.406,736.852 299.747,731.451 285.676,728.238C278.545,726.61 274.152,723.601 274.152,720.345L274.152,696.692C274.152,693.436 278.545,690.427 285.676,688.799C299.747,685.586 323.406,680.185 337.477,676.972Z" style="fill:rgb(56,189,248);"/>
                            <g id="seite-rechts" serif:id="seite rechts" transform="matrix(0.345715,0,0,0.136709,223.852,622.939)">
                                <path d="M362,876L578.5,751L578.5,501L362,626L362,876Z" style="fill:rgb(14,165,233);"/>
                            </g>
                            <g id="seite-hinten" serif:id="seite hinten" transform="matrix(0.345715,0,0,0.136709,223.852,622.939)">
                                <path d="M362,376L578.5,501L578.5,751L362,626L362,376Z" style="fill:rgb(56,171,238);"/>
                            </g>
                            <g id="seite-links" serif:id="seite links" transform="matrix(0.345715,0,0,0.136709,223.852,622.939)">
                                <path d="M362,376L145.5,501L145.5,751L362,626L362,376Z" style="fill:rgb(56,170,241);"/>
                            </g>
                            <g id="seite-vorne" serif:id="seite vorne" transform="matrix(0.345715,0,0,0.136709,223.852,622.939)">
                                <path d="M145.5,501L145.5,751L362,876L362,626L145.5,501Z" style="fill:rgb(14,165,242);"/>
                            </g>
                        </g>
                    </g>
                </g>
                <g id="Book" transform="matrix(0.629377,0,0,0.589648,3489.97,1104.69)">
                    <path d="M96,0C43,0 0,43 0,96L0,416C0,469 43,512 96,512L416,512C433.7,512 448,497.7 448,480C448,462.3 433.7,448 416,448L416,384C433.7,384 448,369.7 448,352L448,32C448,14.3 433.7,0 416,0L96,0ZM96,384L352,384L352,448L96,448C78.3,448 64,433.7 64,416C64,398.3 78.3,384 96,384ZM128,144C128,135.2 135.2,128 144,128L336,128C344.8,128 352,135.2 352,144C352,152.8 344.8,160 336,160L144,160C135.2,160 128,152.8 128,144ZM144,192L336,192C344.8,192 352,199.2 352,208C352,216.8 344.8,224 336,224L144,224C135.2,224 128,216.8 128,208C128,199.2 135.2,192 144,192Z" style="fill:white;fill-rule:nonzero;"/>
                </g>
            </g>
        </g>
    </g>
</svg>
