<?xml version="1.0" encoding="UTF-8" standalone="no"?><!DOCTYPE svg PUBLIC "-//W3C//DTD SVG 1.1//EN" "http://www.w3.org/Graphics/SVG/1.1/DTD/svg11.dtd"><svg width="100%" height="100%" viewBox="0 0 513 513" version="1.1" xmlns="http://www.w3.org/2000/svg" xmlns:xlink="http://www.w3.org/1999/xlink" xml:space="preserve" xmlns:serif="http://www.serif.com/" style="fill-rule:evenodd;clip-rule:evenodd;stroke-linejoin:round;stroke-miterlimit:2;"><rect id="Icon-Stylebook" serif:id="Icon Stylebook" x="0.865" y="0.388" width="512" height="512" style="fill:none;"/><g><g id="Polygon"><path id="Polygon1" serif:id="Polygon" d="M236.865,17.935c12.376,-7.145 27.624,-7.145 40,0c41.233,23.806 135.274,78.1 176.506,101.906c12.377,7.146 20,20.351 20,34.641c0,47.612 0,156.201 0,203.812c0,14.291 -7.623,27.496 -20,34.641c-41.232,23.806 -135.273,78.1 -176.506,101.906c-12.376,7.146 -27.624,7.146 -40,0c-41.233,-23.806 -135.273,-78.1 -176.506,-101.906c-12.376,-7.145 -20,-20.35 -20,-34.641l-0,-203.812c-0,-14.29 7.624,-27.495 20,-34.641c41.233,-23.806 135.273,-78.1 176.506,-101.906Z" style="fill:none;"/><clipPath id="_clip1"><path id="Polygon2" serif:id="Polygon" d="M236.865,17.935c12.376,-7.145 27.624,-7.145 40,0c41.233,23.806 135.274,78.1 176.506,101.906c12.377,7.146 20,20.351 20,34.641c0,47.612 0,156.201 0,203.812c0,14.291 -7.623,27.496 -20,34.641c-41.232,23.806 -135.273,78.1 -176.506,101.906c-12.376,7.146 -27.624,7.146 -40,0c-41.233,-23.806 -135.273,-78.1 -176.506,-101.906c-12.376,-7.145 -20,-20.35 -20,-34.641l-0,-203.812c-0,-14.29 7.624,-27.495 20,-34.641c41.233,-23.806 135.273,-78.1 176.506,-101.906Z"/></clipPath><g clip-path="url(#_clip1)"><path id="HG" d="M236.865,17.935c12.376,-7.145 27.624,-7.145 40,0c41.233,23.806 135.274,78.1 176.506,101.906c12.377,7.146 20,20.351 20,34.641c0,47.612 0,156.201 0,203.812c0,14.291 -7.623,27.496 -20,34.641c-41.232,23.806 -135.273,78.1 -176.506,101.906c-12.376,7.146 -27.624,7.146 -40,0c-41.233,-23.806 -135.273,-78.1 -176.506,-101.906c-12.376,-7.145 -20,-20.35 -20,-34.641l-0,-203.812c-0,-14.29 7.624,-27.495 20,-34.641c41.233,-23.806 135.273,-78.1 176.506,-101.906Z" style="fill:#38bdf8;"/><path id="seite-rechts" serif:id="seite rechts" d="M256.865,506.388l216.5,-125l0,-250l-216.5,125l0,250Z" style="fill:#0ea5e9;"/><path id="seite-hinten" serif:id="seite hinten" d="M256.865,6.388l216.5,125l0,250l-216.5,-125l0,-250Z" style="fill:#38abee;"/><path id="seite-links" serif:id="seite links" d="M256.865,6.388l-216.5,125l0,250l216.5,-125l0,-250Z" style="fill:#38aaf1;"/><path id="seite-vorne" serif:id="seite vorne" d="M40.365,131.388l0,250l216.5,125l0,-250l-216.5,-125Z" style="fill:#0ea5f2;"/></g></g><path d="M377.179,302.291l0,-168.75c0,-15.533 -12.597,-28.125 -28.125,-28.125l-178.125,0c-31.066,0 -56.25,25.184 -56.25,56.25l0,187.5c0,31.066 25.184,56.25 56.25,56.25l187.5,0c10.354,0 18.75,-8.396 18.75,-18.223c0,-6.867 -3.871,-12.609 -9.375,-15.879l0,-47.671c5.743,-5.649 9.375,-13.032 9.375,-21.352Zm-37.5,65.625l-168.75,0c-10.353,0 -18.75,-8.396 -18.75,-18.75c0,-10.353 8.397,-18.75 18.75,-18.75l168.75,0l0,37.5Zm-37.481,-140.619l0,9.375c0,10.341 -8.408,18.75 -18.75,18.75l-18.75,-0l0,18.75c0,10.341 -8.408,18.75 -18.75,18.75c-10.341,-0 -18.75,-8.409 -18.75,-18.75l0,-18.75l-18.75,-0c-10.356,-0 -18.75,-8.409 -18.75,-18.75l0,-9.375l112.5,-0Zm-56.25,51.562c2.579,0 4.688,-2.109 4.688,-4.687c-0,-2.578 -2.109,-4.688 -4.688,-4.688c-2.578,0 -4.687,2.11 -4.687,4.688c-0,2.578 2.109,4.687 4.687,4.687Zm9.375,-135.937l32.813,-0c7.764,-0 14.062,6.296 14.062,14.062l0,60.938l-112.5,-0l0,-60.938c0,-7.766 6.296,-14.062 14.063,-14.062l4.687,-0l9.375,18.75l9.375,-18.75l9.375,-0l9.375,18.75l9.375,-18.75Z" style="fill:#fff;fill-rule:nonzero;"/></g></svg>