<?xml version="1.0" encoding="UTF-8" standalone="no"?>
<!DOCTYPE svg PUBLIC "-//W3C//DTD SVG 1.1//EN" "http://www.w3.org/Graphics/SVG/1.1/DTD/svg11.dtd">
<svg width="100%" height="100%" viewBox="0 0 512 512" version="1.1" xmlns="http://www.w3.org/2000/svg" xmlns:xlink="http://www.w3.org/1999/xlink" xml:space="preserve" xmlns:serif="http://www.serif.com/" style="fill-rule:evenodd;clip-rule:evenodd;stroke-linejoin:round;stroke-miterlimit:2;">
    <g transform="matrix(1,0,0,1,-1532,-1000)">
        <g id="Icon-Finace-Inverse" serif:id="Icon Finace Inverse" transform="matrix(1.31754,0,0,4.19661,519.35,-841.82)">
            <rect x="768.592" y="438.883" width="388.603" height="122.003" style="fill:none;"/>
            <g id="Icon-Finance" serif:id="Icon Finance">
                <g transform="matrix(2.19542,0,0,1.74303,196.688,-735.087)">
                    <g id="Polygon">
                        <path id="Polygon1" serif:id="Polygon" d="M342.087,675.92C346.366,674.943 351.637,674.943 355.916,675.92C370.17,679.175 402.682,686.597 416.936,689.851C421.215,690.828 423.851,692.634 423.851,694.587L423.851,722.45C423.851,724.404 421.215,726.209 416.936,727.186C402.682,730.44 370.17,737.863 355.916,741.117C351.637,742.094 346.366,742.094 342.087,741.117C327.832,737.863 295.321,730.44 281.066,727.186C276.788,726.209 274.152,724.404 274.152,722.45L274.152,694.587C274.152,692.634 276.788,690.828 281.066,689.851C295.321,686.597 327.832,679.175 342.087,675.92Z" style="fill:none;"/>
                        <clipPath id="_clip1">
                            <path id="Polygon2" serif:id="Polygon" d="M342.087,675.92C346.366,674.943 351.637,674.943 355.916,675.92C370.17,679.175 402.682,686.597 416.936,689.851C421.215,690.828 423.851,692.634 423.851,694.587L423.851,722.45C423.851,724.404 421.215,726.209 416.936,727.186C402.682,730.44 370.17,737.863 355.916,741.117C351.637,742.094 346.366,742.094 342.087,741.117C327.832,737.863 295.321,730.44 281.066,727.186C276.788,726.209 274.152,724.404 274.152,722.45L274.152,694.587C274.152,692.634 276.788,690.828 281.066,689.851C295.321,686.597 327.832,679.175 342.087,675.92Z"/>
                        </clipPath>
                        <g clip-path="url(#_clip1)">
                            <path id="HG" d="M342.087,675.92C346.366,674.943 351.637,674.943 355.916,675.92C370.17,679.175 402.682,686.597 416.936,689.851C421.215,690.828 423.851,692.634 423.851,694.587L423.851,722.45C423.851,724.404 421.215,726.209 416.936,727.186C402.682,730.44 370.17,737.863 355.916,741.117C351.637,742.094 346.366,742.094 342.087,741.117C327.832,737.863 295.321,730.44 281.066,727.186C276.788,726.209 274.152,724.404 274.152,722.45L274.152,694.587C274.152,692.634 276.788,690.828 281.066,689.851C295.321,686.597 327.832,679.175 342.087,675.92Z" style="fill:rgb(191,4,4);"/>
                            <g id="seite-rechts" serif:id="seite rechts" transform="matrix(0.345715,0,0,0.136709,223.852,622.939)">
                                <path d="M362,876L578.5,751L578.5,501L362,626L362,876Z" style="fill:rgb(185,28,28);"/>
                            </g>
                            <g id="seite-hinten" serif:id="seite hinten" transform="matrix(0.345715,0,0,0.136709,223.852,622.939)">
                                <path d="M362,376L578.5,501L578.5,751L362,626L362,376Z" style="fill:rgb(193,38,38);"/>
                            </g>
                            <g id="seite-links" serif:id="seite links" transform="matrix(0.345715,0,0,0.136709,223.852,622.939)">
                                <path d="M362,376L145.5,501L145.5,751L362,626L362,376Z" style="fill:rgb(186,27,27);"/>
                            </g>
                            <g id="seite-vorne" serif:id="seite vorne" transform="matrix(0.345715,0,0,0.136709,223.852,622.939)">
                                <path d="M145.5,501L145.5,751L362,876L362,626L145.5,501Z" style="fill:rgb(171,27,27);"/>
                            </g>
                        </g>
                    </g>
                </g>
                <g id="Kasse" transform="matrix(0.352523,0,0,0.113751,446.947,431.2)">
                    <g transform="matrix(19.9846,0,0,18.465,1366.86,451.136)">
                        <path d="M3,20L3,19L5,17L5,20C5,20.283 4.904,20.521 4.713,20.712C4.521,20.904 4.283,21 4,21C3.717,21 3.479,20.904 3.288,20.712C3.096,20.521 3,20.283 3,20ZM7,20L7,15L9,13L9,20C9,20.283 8.904,20.521 8.713,20.712C8.521,20.904 8.283,21 8,21C7.717,21 7.479,20.904 7.288,20.712C7.096,20.521 7,20.283 7,20ZM11,20L11,13L13,15.025L13,20C13,20.283 12.904,20.521 12.713,20.712C12.521,20.904 12.283,21 12,21C11.717,21 11.479,20.904 11.288,20.712C11.096,20.521 11,20.283 11,20ZM15,20L15,15.025L17,13.025L17,20C17,20.283 16.904,20.521 16.713,20.712C16.521,20.904 16.283,21 16,21C15.717,21 15.479,20.904 15.288,20.712C15.096,20.521 15,20.283 15,20ZM19,20L19,11L21,9L21,20C21,20.283 20.904,20.521 20.713,20.712C20.521,20.904 20.283,21 20,21C19.717,21 19.479,20.904 19.288,20.712C19.096,20.521 19,20.283 19,20ZM3.3,12.7L8.575,7.425C8.958,7.042 9.433,6.85 10,6.85C10.567,6.85 11.042,7.042 11.425,7.425L14,10L19.3,4.7C19.5,4.5 19.738,4.404 20.013,4.412C20.288,4.421 20.525,4.525 20.725,4.725C20.908,4.925 20.996,5.162 20.988,5.438C20.979,5.712 20.883,5.942 20.7,6.125L15.425,11.4C15.042,11.783 14.567,11.975 14,11.975C13.433,11.975 12.958,11.783 12.575,11.4L10,8.825L4.7,14.125C4.5,14.325 4.263,14.421 3.988,14.413C3.713,14.404 3.475,14.3 3.275,14.1C3.092,13.9 3.004,13.663 3.013,13.387C3.021,13.112 3.117,12.883 3.3,12.7Z" style="fill:white;fill-rule:nonzero;"/>
                    </g>
                    <g transform="matrix(1.02778,0,0,1,670.522,327.423)">
                        <path d="M952.717,349.752L962.049,477.986C963.057,491.841 958.256,505.491 948.797,515.664C939.338,525.837 926.072,531.616 912.181,531.616C813.776,531.616 605.803,531.616 507.398,531.616C493.507,531.616 480.241,525.837 470.782,515.664C461.322,505.491 456.521,491.841 457.53,477.986C462.535,409.21 471.133,291.07 475.868,225.995C477.771,199.858 499.53,179.624 525.737,179.624L597.633,179.624L597.633,146.165L514.656,146.165C500.849,146.165 489.656,134.972 489.656,121.165L489.656,46.165C489.656,32.357 500.849,21.165 514.656,21.165C567.806,21.165 691.506,21.165 744.656,21.165C758.463,21.165 769.656,32.357 769.656,46.165L769.656,121.165C769.656,134.972 758.463,146.165 744.656,146.165L661.68,146.165L661.68,179.624L893.842,179.624C920.048,179.624 941.808,199.858 943.71,225.995L949.164,300.927L903.108,257.191C894.913,249.409 884.821,245.384 872.797,245.206C868.412,239.442 861.481,235.719 853.687,235.719C840.441,235.719 829.687,246.473 829.687,259.719C829.687,262.166 830.054,264.527 830.736,266.752L738.236,354.594C733.695,358.906 731.297,364.286 731.091,370.755C730.884,377.233 733.047,382.831 737.595,387.543C737.645,387.595 737.697,387.646 737.749,387.696C742.564,392.268 748.283,394.648 754.903,394.839C761.634,395.032 767.448,392.807 772.344,388.158L799.1,362.749C801.204,363.353 803.425,363.676 805.721,363.676C818.967,363.676 829.721,352.922 829.721,339.676C829.721,337.812 829.508,335.998 829.105,334.256L871.956,293.563C871.956,293.563 918.583,337.841 918.583,337.841C926.968,345.803 937.339,349.832 949.734,349.832C950.742,349.832 951.736,349.806 952.717,349.752ZM769.602,435.598L769.589,435.61L533.287,435.61C524.452,435.61 517.289,442.772 517.289,451.608C517.289,451.609 517.289,451.61 517.289,451.612C517.289,460.447 524.452,467.61 533.287,467.61L735.892,467.61L732.402,470.924C731.408,471.868 730.845,473.178 730.845,474.549L730.845,493.014C730.845,499.69 733.237,505.28 737.993,509.796C742.651,514.22 748.404,516.479 755.29,516.479C762.175,516.479 767.929,514.22 772.587,509.796C777.343,505.28 779.734,499.69 779.734,493.014L779.734,467.61L808.623,467.61L808.623,493.014C808.623,499.69 811.015,505.28 815.77,509.796C820.428,514.22 826.182,516.479 833.068,516.479C839.953,516.479 845.707,514.22 850.365,509.796C855.12,505.28 857.512,499.69 857.512,493.014L857.512,467.61L886.291,467.61L886.401,467.609L886.401,493.014C886.401,499.69 888.792,505.28 893.548,509.796C898.206,514.22 903.96,516.479 910.845,516.479C917.731,516.479 923.484,514.22 928.142,509.796C932.898,505.28 935.29,499.69 935.29,493.014L935.29,401.151C935.29,399.791 934.736,398.489 933.755,397.546L894.866,360.155C893.421,358.765 891.286,358.373 889.442,359.159C887.598,359.944 886.401,361.754 886.401,363.759L886.401,435.61L886.291,435.61L857.512,435.61L857.512,363.759C857.512,361.76 856.322,359.953 854.485,359.165C852.648,358.376 850.518,358.757 849.069,360.133L810.18,397.063C809.186,398.007 808.623,399.318 808.623,400.689L808.623,435.61L779.313,435.61L779.307,435.598L769.602,435.598ZM613.618,315.676C626.864,315.676 637.618,326.43 637.618,339.676C637.618,352.922 626.864,363.676 613.618,363.676C600.372,363.676 589.618,352.922 589.618,339.676C589.618,326.43 600.372,315.676 613.618,315.676ZM709.675,315.676C722.921,315.676 733.675,326.43 733.675,339.676C733.675,352.922 722.921,363.676 709.675,363.676C696.429,363.676 685.675,352.922 685.675,339.676C685.675,326.43 696.429,315.676 709.675,315.676ZM757.743,235.719C770.989,235.719 781.743,246.473 781.743,259.719C781.743,272.965 770.989,283.719 757.743,283.719C744.497,283.719 733.743,272.965 733.743,259.719C733.743,246.473 744.497,235.719 757.743,235.719ZM565.719,235.719C578.965,235.719 589.719,246.473 589.719,259.719C589.719,272.965 578.965,283.719 565.719,283.719C552.473,283.719 541.719,272.965 541.719,259.719C541.719,246.473 552.473,235.719 565.719,235.719ZM661.528,235.719C674.774,235.719 685.528,246.473 685.528,259.719C685.528,272.965 674.774,283.719 661.528,283.719C648.282,283.719 637.528,272.965 637.528,259.719C637.528,246.473 648.282,235.719 661.528,235.719ZM729.656,83.663C729.656,72.618 720.703,63.665 709.658,63.665L549.654,63.665C538.61,63.665 529.656,72.618 529.656,83.663L529.656,83.667C529.656,94.711 538.61,103.665 549.654,103.665L709.658,103.665C720.703,103.665 729.656,94.711 729.656,83.667L729.656,83.663Z" style="fill:white;"/>
                    </g>
                </g>
            </g>
        </g>
    </g>
</svg>
