<?xml version="1.0" encoding="UTF-8" standalone="no"?>
<!DOCTYPE svg PUBLIC "-//W3C//DTD SVG 1.1//EN" "http://www.w3.org/Graphics/SVG/1.1/DTD/svg11.dtd">
<svg width="100%" height="100%" viewBox="0 0 513 512" version="1.1" xmlns="http://www.w3.org/2000/svg" xmlns:xlink="http://www.w3.org/1999/xlink" xml:space="preserve" xmlns:serif="http://www.serif.com/" style="fill-rule:evenodd;clip-rule:evenodd;stroke-linejoin:round;stroke-miterlimit:2;">
    <g transform="matrix(1,0,0,1,-2099,-1000)">
        <g id="Icon-POS-Trader-Inverse" serif:id="Icon POS/Trader Inverse" transform="matrix(1.31754,0,0,4.19661,1087.07,-841.82)">
            <rect x="768.592" y="438.883" width="388.603" height="122.003" style="fill:none;"/>
            <g id="Icon-Trader" serif:id="Icon Trader">
                <g transform="matrix(2.19542,0,0,1.74303,196.688,-735.087)">
                    <g id="Polygon">
                        <path id="Polygon1" serif:id="Polygon" d="M342.087,675.92C346.366,674.943 351.637,674.943 355.916,675.92C370.17,679.175 402.682,686.597 416.936,689.851C421.215,690.828 423.851,692.634 423.851,694.587L423.851,722.45C423.851,724.404 421.215,726.209 416.936,727.186C402.682,730.44 370.17,737.863 355.916,741.117C351.637,742.094 346.366,742.094 342.087,741.117C327.832,737.863 295.321,730.44 281.066,727.186C276.788,726.209 274.152,724.404 274.152,722.45L274.152,694.587C274.152,692.634 276.788,690.828 281.066,689.851C295.321,686.597 327.832,679.175 342.087,675.92Z" style="fill:none;"/>
                        <clipPath id="_clip1">
                            <path id="Polygon2" serif:id="Polygon" d="M342.087,675.92C346.366,674.943 351.637,674.943 355.916,675.92C370.17,679.175 402.682,686.597 416.936,689.851C421.215,690.828 423.851,692.634 423.851,694.587L423.851,722.45C423.851,724.404 421.215,726.209 416.936,727.186C402.682,730.44 370.17,737.863 355.916,741.117C351.637,742.094 346.366,742.094 342.087,741.117C327.832,737.863 295.321,730.44 281.066,727.186C276.788,726.209 274.152,724.404 274.152,722.45L274.152,694.587C274.152,692.634 276.788,690.828 281.066,689.851C295.321,686.597 327.832,679.175 342.087,675.92Z"/>
                        </clipPath>
                        <g clip-path="url(#_clip1)">
                            <path id="HG" d="M342.087,675.92C346.366,674.943 351.637,674.943 355.916,675.92C370.17,679.175 402.682,686.597 416.936,689.851C421.215,690.828 423.851,692.634 423.851,694.587L423.851,722.45C423.851,724.404 421.215,726.209 416.936,727.186C402.682,730.44 370.17,737.863 355.916,741.117C351.637,742.094 346.366,742.094 342.087,741.117C327.832,737.863 295.321,730.44 281.066,727.186C276.788,726.209 274.152,724.404 274.152,722.45L274.152,694.587C274.152,692.634 276.788,690.828 281.066,689.851C295.321,686.597 327.832,679.175 342.087,675.92Z" style="fill:rgb(249,124,22);"/>
                            <g id="seite-rechts" serif:id="seite rechts" transform="matrix(0.345715,0,0,0.136709,223.852,622.939)">
                                <path d="M362,876L578.5,751L578.5,501L362,626L362,876Z" style="fill:rgb(249,115,22);"/>
                            </g>
                            <g id="seite-hinten" serif:id="seite hinten" transform="matrix(0.345715,0,0,0.136709,223.852,622.939)">
                                <path d="M362,376L578.5,501L578.5,751L362,626L362,376Z" style="fill:rgb(249,124,22);"/>
                            </g>
                            <g id="seite-links" serif:id="seite links" transform="matrix(0.345715,0,0,0.136709,223.852,622.939)">
                                <path d="M362,376L145.5,501L145.5,751L362,626L362,376Z" style="fill:rgb(249,117,22);"/>
                            </g>
                            <g id="seite-vorne" serif:id="seite vorne" transform="matrix(0.345715,0,0,0.136709,223.852,622.939)">
                                <path d="M145.5,501L145.5,751L362,876L362,626L145.5,501Z" style="fill:rgb(238,115,22);"/>
                            </g>
                        </g>
                    </g>
                </g>
                <g transform="matrix(0.262614,0,0,0.0824485,623.525,422.184)">
                    <g id="Store">
                        <path id="Store1" serif:id="Store" d="M1270.04,695.52C1243.54,695.52 1222.04,717.02 1222.04,743.52L1222.04,791.52L1174.04,791.52C1165.24,791.52 1158.04,798.72 1158.04,807.52C1158.04,816.32 1165.24,823.52 1174.04,823.52L1430.04,823.52C1438.84,823.52 1446.04,830.72 1446.04,839.52C1446.04,848.32 1438.84,855.52 1430.04,855.52L1206.04,855.52C1197.24,855.52 1190.04,862.72 1190.04,871.52C1190.04,880.32 1197.24,887.52 1206.04,887.52L1398.04,887.52C1406.84,887.52 1414.04,894.72 1414.04,903.52C1414.04,912.32 1406.84,919.52 1398.04,919.52L1174.04,919.52C1165.24,919.52 1158.04,926.72 1158.04,935.52C1158.04,944.32 1165.24,951.52 1174.04,951.52L1366.04,951.52C1374.84,951.52 1382.04,958.72 1382.04,967.52C1382.04,976.32 1374.84,983.52 1366.04,983.52L1222.04,983.52L1222.04,1111.52C1222.04,1164.52 1265.04,1207.52 1318.04,1207.52C1371.04,1207.52 1414.04,1164.52 1414.04,1111.52L1542.04,1111.52C1542.04,1164.52 1585.04,1207.52 1638.04,1207.52C1691.04,1207.52 1734.04,1164.52 1734.04,1111.52L1766.04,1111.52C1783.74,1111.52 1798.04,1097.22 1798.04,1079.52C1798.04,1061.82 1783.74,1047.52 1766.04,1047.52L1766.04,932.82C1766.04,915.82 1759.34,899.52 1747.34,887.52L1670.04,810.22C1658.04,798.22 1641.74,791.52 1624.74,791.52L1574.04,791.52L1574.04,743.52C1574.04,717.02 1552.54,695.52 1526.04,695.52L1270.04,695.52ZM1213.66,1189.31L1213.66,1061.31L898.524,1061.31L898.524,927.909C887.324,931.409 875.324,933.309 862.924,933.309C857.424,933.309 851.924,932.909 846.624,932.209L846.524,932.209C842.424,931.609 838.424,930.909 834.524,929.909L834.524,1125.31C834.524,1160.61 863.224,1189.31 898.524,1189.31L1213.66,1189.31ZM1318.04,1063.52C1344.38,1063.52 1366.04,1085.19 1366.04,1111.52C1366.04,1137.85 1344.38,1159.52 1318.04,1159.52C1291.71,1159.52 1270.04,1137.85 1270.04,1111.52C1270.04,1085.19 1291.71,1063.52 1318.04,1063.52ZM1590.04,1111.52C1590.04,1085.19 1611.71,1063.52 1638.04,1063.52C1664.38,1063.52 1686.04,1085.19 1686.04,1111.52C1686.04,1137.85 1664.38,1159.52 1638.04,1159.52C1611.71,1159.52 1590.04,1137.85 1590.04,1111.52ZM1702.04,932.82L1702.04,951.52L1574.04,951.52L1574.04,855.52L1624.74,855.52L1702.04,932.82ZM1213.66,786.52L1213.66,677.309L880.124,677.309C870.424,677.309 861.324,682.309 856.224,690.409L798.824,781.109C769.224,827.909 795.424,893.009 850.724,900.509C854.724,901.009 858.824,901.309 862.824,901.309C888.924,901.309 912.124,889.909 928.024,872.309C943.924,889.909 967.124,901.309 993.224,901.309C1019.32,901.309 1042.52,889.909 1058.42,872.309C1074.32,889.909 1097.52,901.309 1123.62,901.309C1148.05,901.309 1169.78,891.403 1185.49,875.795C1185.19,874.415 1185.04,872.985 1185.04,871.52C1185.04,859.97 1194.49,850.52 1206.04,850.52L1213.66,850.52L1213.66,828.52L1174.04,828.52C1162.49,828.52 1153.04,819.07 1153.04,807.52C1153.04,795.97 1162.49,786.52 1174.04,786.52L1213.66,786.52Z" style="fill:white;"/>
                    </g>
                </g>
            </g>
        </g>
    </g>
</svg>
