<?xml version="1.0" encoding="UTF-8" standalone="no"?><!DOCTYPE svg PUBLIC "-//W3C//DTD SVG 1.1//EN" "http://www.w3.org/Graphics/SVG/1.1/DTD/svg11.dtd"><svg width="100%" height="100%" viewBox="0 0 513 512" version="1.1" xmlns="http://www.w3.org/2000/svg" xmlns:xlink="http://www.w3.org/1999/xlink" xml:space="preserve" xmlns:serif="http://www.serif.com/" style="fill-rule:evenodd;clip-rule:evenodd;stroke-linejoin:round;stroke-miterlimit:2;"><rect id="Icon-Docs" serif:id="Icon Docs" x="0.671" y="0" width="512" height="512" style="fill:none;"/><g id="Polygon"><path id="Polygon1" serif:id="Polygon" d="M236.671,17.547c12.376,-7.145 27.624,-7.145 40,0c41.233,23.806 135.274,78.1 176.507,101.906c12.376,7.145 19.999,20.35 20,34.641l-0,203.812c-0.001,14.291 -7.624,27.496 -20,34.641c-41.233,23.806 -135.274,78.1 -176.507,101.906c-12.376,7.145 -27.624,7.145 -40,-0c-41.233,-23.806 -135.273,-78.1 -176.506,-101.906c-12.376,-7.145 -20,-20.35 -20,-34.641l-0,-203.812c-0,-14.291 7.624,-27.496 20,-34.641c41.233,-23.806 135.273,-78.1 176.506,-101.906Z" style="fill:none;"/><clipPath id="_clip1"><path id="Polygon2" serif:id="Polygon" d="M236.671,17.547c12.376,-7.145 27.624,-7.145 40,0c41.233,23.806 135.274,78.1 176.507,101.906c12.376,7.145 19.999,20.35 20,34.641l-0,203.812c-0.001,14.291 -7.624,27.496 -20,34.641c-41.233,23.806 -135.274,78.1 -176.507,101.906c-12.376,7.145 -27.624,7.145 -40,-0c-41.233,-23.806 -135.273,-78.1 -176.506,-101.906c-12.376,-7.145 -20,-20.35 -20,-34.641l-0,-203.812c-0,-14.291 7.624,-27.496 20,-34.641c41.233,-23.806 135.273,-78.1 176.506,-101.906Z"/></clipPath><g clip-path="url(#_clip1)"><path id="HG" d="M236.671,17.547c12.376,-7.145 27.624,-7.145 40,0c41.233,23.806 135.274,78.1 176.507,101.906c12.376,7.145 19.999,20.35 20,34.641l-0,203.812c-0.001,14.291 -7.624,27.496 -20,34.641c-41.233,23.806 -135.274,78.1 -176.507,101.906c-12.376,7.145 -27.624,7.145 -40,-0c-41.233,-23.806 -135.273,-78.1 -176.506,-101.906c-12.376,-7.145 -20,-20.35 -20,-34.641l-0,-203.812c-0,-14.291 7.624,-27.496 20,-34.641c41.233,-23.806 135.273,-78.1 176.506,-101.906Z" style="fill:#272727;"/><path id="seite-rechts" serif:id="seite rechts" d="M256.671,506l216.5,-125l0,-250l-216.5,125l0,250Z" style="fill:#242424;"/><path id="seite-hinten" serif:id="seite hinten" d="M256.671,6l216.5,125l0,250l-216.5,-125l0,-250Z" style="fill:#272727;"/><path id="seite-links" serif:id="seite links" d="M256.671,6l-216.5,125l0,250l216.5,-125l0,-250Z" style="fill:#222;"/><path id="seite-vorne" serif:id="seite vorne" d="M40.171,131l0,250l216.5,125l0,-250l-216.5,-125Z" style="fill:#1e1e1e;"/></g></g><path id="Book" d="M181.671,106c-31.055,-0 -56.25,25.195 -56.25,56.25l0,187.5c0,31.055 25.195,56.25 56.25,56.25l187.5,-0c10.371,-0 18.75,-8.379 18.75,-18.75c0,-10.371 -8.379,-18.75 -18.75,-18.75l0,-37.5c10.371,-0 18.75,-8.379 18.75,-18.75l0,-187.5c0,-10.371 -8.379,-18.75 -18.75,-18.75l-187.5,-0Zm0,225l150,-0l0,37.5l-150,-0c-10.371,-0 -18.75,-8.379 -18.75,-18.75c0,-10.371 8.379,-18.75 18.75,-18.75Zm18.75,-140.625c0,-5.156 4.219,-9.375 9.375,-9.375l112.5,-0c5.156,-0 9.375,4.219 9.375,9.375c0,5.156 -4.219,9.375 -9.375,9.375l-112.5,-0c-5.156,-0 -9.375,-4.219 -9.375,-9.375Zm9.375,28.125l112.5,-0c5.156,-0 9.375,4.219 9.375,9.375c0,5.156 -4.219,9.375 -9.375,9.375l-112.5,-0c-5.156,-0 -9.375,-4.219 -9.375,-9.375c0,-5.156 4.219,-9.375 9.375,-9.375Z" style="fill:#0891ff;fill-rule:nonzero;"/></svg>